<?xml version="1.0" encoding="UTF-8" standalone="no"?>
<!-- Created with Inkscape (http://www.inkscape.org/) -->

<svg
   version="1.1"
   id="svg1"
   width="308"
   height="269"
   viewBox="0 0 308 269"
   sodipodi:docname="car top view svg.svg"
   inkscape:version="1.4.2 (f4327f4, 2025-05-13)"
   xmlns:inkscape="http://www.inkscape.org/namespaces/inkscape"
   xmlns:sodipodi="http://sodipodi.sourceforge.net/DTD/sodipodi-0.dtd"
   xmlns="http://www.w3.org/2000/svg"
   xmlns:svg="http://www.w3.org/2000/svg">
  <defs
     id="defs1">
    <inkscape:path-effect
       effect="bspline"
       id="path-effect48"
       is_visible="true"
       lpeversion="1.3"
       weight="33.333333"
       steps="2"
       helper_size="0"
       apply_no_weight="true"
       apply_with_weight="true"
       only_selected="false"
       uniform="false" />
    <inkscape:path-effect
       effect="bspline"
       id="path-effect46"
       is_visible="true"
       lpeversion="1.3"
       weight="33.333333"
       steps="2"
       helper_size="0"
       apply_no_weight="true"
       apply_with_weight="true"
       only_selected="false"
       uniform="false" />
    <inkscape:path-effect
       effect="bspline"
       id="path-effect45"
       is_visible="true"
       lpeversion="1.3"
       weight="33.333333"
       steps="2"
       helper_size="0"
       apply_no_weight="true"
       apply_with_weight="true"
       only_selected="false"
       uniform="false" />
    <inkscape:path-effect
       effect="bspline"
       id="path-effect43"
       is_visible="true"
       lpeversion="1.3"
       weight="33.333333"
       steps="2"
       helper_size="0"
       apply_no_weight="true"
       apply_with_weight="true"
       only_selected="false"
       uniform="false" />
    <inkscape:path-effect
       effect="bspline"
       id="path-effect30"
       is_visible="true"
       lpeversion="1.3"
       weight="33.333333"
       steps="2"
       helper_size="0"
       apply_no_weight="true"
       apply_with_weight="true"
       only_selected="false"
       uniform="false" />
    <inkscape:path-effect
       effect="bspline"
       id="path-effect28"
       is_visible="true"
       lpeversion="1.3"
       weight="33.333333"
       steps="2"
       helper_size="0"
       apply_no_weight="true"
       apply_with_weight="true"
       only_selected="false"
       uniform="false" />
    <inkscape:path-effect
       effect="bspline"
       id="path-effect26"
       is_visible="true"
       lpeversion="1.3"
       weight="33.333333"
       steps="2"
       helper_size="0"
       apply_no_weight="true"
       apply_with_weight="true"
       only_selected="false"
       uniform="false" />
    <inkscape:path-effect
       effect="bspline"
       id="path-effect24"
       is_visible="true"
       lpeversion="1.3"
       weight="33.333333"
       steps="2"
       helper_size="0"
       apply_no_weight="true"
       apply_with_weight="true"
       only_selected="false"
       uniform="false" />
    <inkscape:path-effect
       effect="bspline"
       id="path-effect22"
       is_visible="true"
       lpeversion="1.3"
       weight="33.333333"
       steps="2"
       helper_size="0"
       apply_no_weight="true"
       apply_with_weight="true"
       only_selected="false"
       uniform="false" />
    <inkscape:path-effect
       effect="bspline"
       id="path-effect20"
       is_visible="true"
       lpeversion="1.3"
       weight="33.333333"
       steps="2"
       helper_size="0"
       apply_no_weight="true"
       apply_with_weight="true"
       only_selected="false"
       uniform="false" />
    <inkscape:path-effect
       effect="bspline"
       id="path-effect18"
       is_visible="true"
       lpeversion="1.3"
       weight="33.333333"
       steps="2"
       helper_size="0"
       apply_no_weight="true"
       apply_with_weight="true"
       only_selected="false"
       uniform="false" />
    <inkscape:path-effect
       effect="bspline"
       id="path-effect9"
       is_visible="true"
       lpeversion="1.3"
       weight="33.333333"
       steps="2"
       helper_size="0"
       apply_no_weight="true"
       apply_with_weight="true"
       only_selected="false"
       uniform="false" />
    <inkscape:path-effect
       effect="bspline"
       id="path-effect8"
       is_visible="true"
       lpeversion="1.3"
       weight="33.333333"
       steps="2"
       helper_size="0"
       apply_no_weight="true"
       apply_with_weight="true"
       only_selected="false"
       uniform="false" />
    <inkscape:path-effect
       effect="bspline"
       id="path-effect7"
       is_visible="true"
       lpeversion="1.3"
       weight="33.333333"
       steps="2"
       helper_size="0"
       apply_no_weight="true"
       apply_with_weight="true"
       only_selected="false"
       uniform="false" />
    <inkscape:path-effect
       effect="bspline"
       id="path-effect6"
       is_visible="true"
       lpeversion="1.3"
       weight="33.333333"
       steps="2"
       helper_size="0"
       apply_no_weight="true"
       apply_with_weight="true"
       only_selected="false"
       uniform="false" />
    <inkscape:path-effect
       effect="bspline"
       id="path-effect5"
       is_visible="true"
       lpeversion="1.3"
       weight="33.333333"
       steps="2"
       helper_size="0"
       apply_no_weight="true"
       apply_with_weight="true"
       only_selected="false"
       uniform="false" />
    <inkscape:path-effect
       effect="bspline"
       id="path-effect4"
       is_visible="true"
       lpeversion="1.3"
       weight="33.333333"
       steps="2"
       helper_size="0"
       apply_no_weight="true"
       apply_with_weight="true"
       only_selected="false"
       uniform="false" />
    <inkscape:path-effect
       effect="bspline"
       id="path-effect3"
       is_visible="true"
       lpeversion="1.3"
       weight="33.333333"
       steps="2"
       helper_size="0"
       apply_no_weight="true"
       apply_with_weight="true"
       only_selected="false"
       uniform="false" />
    <inkscape:path-effect
       effect="bspline"
       id="path-effect2"
       is_visible="true"
       lpeversion="1.3"
       weight="33.333333"
       steps="2"
       helper_size="0"
       apply_no_weight="true"
       apply_with_weight="true"
       only_selected="false"
       uniform="false" />
    <inkscape:path-effect
       effect="bspline"
       id="path-effect10"
       is_visible="true"
       lpeversion="1.3"
       weight="33.333333"
       steps="2"
       helper_size="0"
       apply_no_weight="true"
       apply_with_weight="true"
       only_selected="false"
       uniform="false" />
    <inkscape:path-effect
       effect="bspline"
       id="path-effect10-4"
       is_visible="true"
       lpeversion="1.3"
       weight="33.333333"
       steps="2"
       helper_size="0"
       apply_no_weight="true"
       apply_with_weight="true"
       only_selected="false"
       uniform="false" />
    <inkscape:path-effect
       effect="bspline"
       id="path-effect10-6"
       is_visible="true"
       lpeversion="1.3"
       weight="33.333333"
       steps="2"
       helper_size="0"
       apply_no_weight="true"
       apply_with_weight="true"
       only_selected="false"
       uniform="false" />
    <inkscape:path-effect
       effect="bspline"
       id="path-effect10-8"
       is_visible="true"
       lpeversion="1.3"
       weight="33.333333"
       steps="2"
       helper_size="0"
       apply_no_weight="true"
       apply_with_weight="true"
       only_selected="false"
       uniform="false" />
    <inkscape:path-effect
       effect="bspline"
       id="path-effect10-3"
       is_visible="true"
       lpeversion="1.3"
       weight="33.333333"
       steps="2"
       helper_size="0"
       apply_no_weight="true"
       apply_with_weight="true"
       only_selected="false"
       uniform="false" />
  </defs>
  <sodipodi:namedview
     id="namedview1"
     pagecolor="#ffffff"
     bordercolor="#000000"
     borderopacity="0.25"
     inkscape:showpageshadow="2"
     inkscape:pageopacity="0.0"
     inkscape:pagecheckerboard="0"
     inkscape:deskcolor="#d1d1d1"
     inkscape:lockguides="true"
     inkscape:zoom="1.5"
     inkscape:cx="129"
     inkscape:cy="85"
     inkscape:window-width="1920"
     inkscape:window-height="1009"
     inkscape:window-x="1912"
     inkscape:window-y="-8"
     inkscape:window-maximized="1"
     inkscape:current-layer="layer1" />
  <g
     inkscape:groupmode="layer"
     id="layer1"
     inkscape:label="Panels">
    <path
       style="display:inline;fill:none"
       d="m 105.44445,77.111111 c 0.0278,-6.722222 0.0833,-20.166666 0.25,-27.291675 0.16667,-7.125009 0.44444,-7.930547 0.72222,-8.777778 0.27778,-0.84723 0.55555,-1.736101 0.88889,-2.638889 0.33334,-0.902788 0.72222,-1.819436 1.11111,-2.56944 0.38889,-0.750005 0.77777,-1.333327 1.09722,-1.847223 0.31945,-0.513895 0.56944,-0.958328 0.875,-1.472223 0.30556,-0.513895 0.66667,-1.097218 1.08334,-1.652778 0.41667,-0.55556 0.88888,-1.083327 1.37499,-1.638889 0.48612,-0.555561 0.98611,-1.138883 1.52778,-1.708334 0.54168,-0.569451 1.125,-1.124995 1.86112,-1.791669 0.73612,-0.666674 1.62499,-1.444435 2.45833,-2.166664 0.83334,-0.722228 1.61111,-1.388885 2.48612,-2.055559 0.87501,-0.666673 1.84721,-1.333325 2.83333,-1.916662 C 125.00002,18.99999 126,18.5 126.97223,17.999995 c 0.97223,-0.500004 1.91666,-0.999996 3.13889,-1.569447 1.22224,-0.56945 2.72221,-1.208326 4.11111,-1.722219 1.38891,-0.513894 2.66666,-0.902773 3.98612,-1.249999 1.31946,-0.347225 2.68054,-0.652774 3.8611,-0.861109 1.18057,-0.208334 2.18055,-0.319443 3.55557,-0.444445 1.37502,-0.125001 3.12498,-0.263887 4.86111,-0.36111 1.73613,-0.09722 3.45831,-0.152777 4.97222,-0.152777 1.5139,10e-7 2.81943,0.05556 4.125,0.15278 1.30557,0.09722 2.61109,0.236109 4,0.444445 1.3889,0.208336 2.86109,0.486107 4.19444,0.791667 1.33335,0.30556 2.52777,0.638887 3.68056,0.972222 1.15278,0.333336 2.26387,0.666664 3.27777,1.02778 1.0139,0.361116 1.93055,0.749997 2.95834,1.263893 1.02779,0.513895 2.16665,1.152768 3.26388,1.805553 1.09724,0.652785 2.15277,1.319436 3.06945,1.902775 0.91667,0.583338 1.69443,1.083327 2.48611,1.638889 0.79167,0.555562 1.59721,1.166661 2.36111,1.791667 0.76389,0.625006 1.4861,1.263884 2.23611,2.013894 0.75001,0.75001 1.52777,1.611102 2.20833,2.430553 0.68056,0.819451 1.26388,1.597212 1.90278,2.472224 0.6389,0.875012 1.33333,1.847215 1.97222,2.888893 0.6389,1.041678 1.22222,2.152766 1.69444,3.013883 0.47223,0.861117 0.83333,1.472215 1.13889,2.125001 0.30556,0.652786 0.55555,1.347214 0.84722,2.13889 0.29167,0.791675 0.625,1.680547 0.90278,2.541666 0.27778,0.86112 0.5,1.694437 0.73611,8.527898 0.23612,6.833462 0.48609,19.665511 0.625,26.082692 0.13891,6.41718 0.16661,6.41718 -0.79173,5.847723 -0.95835,-0.569457 -2.90276,-1.708325 -4.43055,-2.541662 -1.52778,-0.833336 -2.63887,-1.361104 -3.66666,-1.763885 -1.02779,-0.402781 -1.97221,-0.680551 -2.95833,-0.98611 -0.98612,-0.305558 -2.01388,-0.638886 -3.22223,-1.000002 -1.20835,-0.361115 -2.59721,-0.749996 -4,-1.097221 -1.40279,-0.347224 -2.81943,-0.652774 -4.18056,-0.930555 -1.36112,-0.27778 -2.66665,-0.527776 -4.06944,-0.75 -1.40279,-0.222224 -2.90276,-0.416664 -4.58333,-0.597222 -1.68058,-0.180557 -3.54166,-0.347221 -5.58334,-0.444442 -2.04169,-0.09722 -4.26387,-0.124998 -6.15278,-0.124998 -1.8889,0 -3.44442,0.02778 -5.66668,0.04166 -2.22225,0.01389 -5.11108,0.01389 -7.54166,0.08333 -2.43057,0.06945 -4.40275,0.208332 -6.61111,0.375001 -2.20836,0.166669 -4.65275,0.361108 -6.95833,0.666668 -2.30558,0.30556 -4.4722,0.722218 -6.30555,1.069443 -1.83335,0.347226 -3.33332,0.624998 -4.61111,0.916667 -1.27778,0.291669 -2.33332,0.597221 -3.375,0.930557 -1.04167,0.333336 -2.06943,0.694441 -3.05555,1.097223 -0.98612,0.402781 -1.93055,0.847219 -2.90278,1.375002 -0.97223,0.527783 -1.97221,1.138882 -3.09722,1.833336 -1.12502,0.694453 -2.37418,1.471709 -3.01348,1.777462 -0.6393,0.305753 -0.66704,0.139203 -0.72258,0.125307 -0.0555,-0.0139 -0.13887,0.125 -0.18053,0.194444 -0.0417,0.06944 -0.0417,0.06944 -0.0139,-6.652778 z"
       id="path2"
       inkscape:path-effect="#path-effect2"
       inkscape:original-d="m 105.41667,83.833333 c 0.0555,-13.444444 0.11111,-26.888888 0.16666,-40.333333 0.27779,-0.805572 0.55556,-1.611111 0.83334,-2.416667 0.27778,-0.888906 0.55555,-1.777777 0.83333,-2.666666 0.3889,-0.916685 0.77778,-1.833334 1.16667,-2.75 0.38889,-0.583345 0.77777,-1.166667 1.16666,-1.75 0.25001,-0.444454 0.5,-0.888889 0.75,-1.333334 0.36112,-0.583345 0.72223,-1.166666 1.08334,-1.75 0.47223,-0.527788 0.94444,-1.055555 1.41666,-1.583333 0.50001,-0.583345 1,-1.166667 1.5,-1.75 0.58335,-0.555567 1.16667,-1.111111 1.75,-1.666667 0.88891,-0.777793 1.77778,-1.555555 2.66667,-2.333333 0.77779,-0.66668 1.55556,-1.333333 2.33333,-2 0.97225,-0.66668 1.94445,-1.333333 2.91667,-2 1.00002,-0.50001 2,-1 3,-1.5 0.94446,-0.50001 1.88889,-1 2.83333,-1.5 1.50003,-0.638902 3,-1.277778 4.5,-1.916667 1.27781,-0.388896 2.55556,-0.777777 3.83334,-1.166666 1.36114,-0.305562 2.72222,-0.611111 4.08333,-0.916667 1.00002,-0.111113 2,-0.222222 3,-0.333333 1.75004,-0.138892 3.5,-0.277778 5.25,-0.416667 1.72226,-0.05556 3.44444,-0.111111 5.16667,-0.166667 1.30558,0.05556 2.61111,0.111111 3.91666,0.166667 1.30559,0.138892 2.61111,0.277778 3.91667,0.416667 1.47225,0.277783 2.94444,0.555555 4.41667,0.833333 1.19447,0.33334 2.38889,0.666667 3.58333,1 1.11113,0.33334 2.22222,0.666667 3.33333,1 0.91669,0.388897 1.83334,0.777778 2.75,1.166667 1.13892,0.638901 2.27778,1.277777 3.41667,1.916666 1.05558,0.66668 2.11111,1.333334 3.16667,2 0.77779,0.50001 1.55555,1 2.33333,1.5 0.80557,0.611124 1.61111,1.222223 2.41667,1.833334 0.72223,0.638901 1.44444,1.277777 2.16666,1.916666 0.7778,0.861129 1.55556,1.722223 2.33334,2.583334 0.58334,0.777793 1.16666,1.555555 1.75,2.333333 0.69446,0.972242 1.38889,1.944444 2.08333,2.916667 0.58335,1.111133 1.16667,2.222222 1.75,3.333333 0.36112,0.611123 0.72222,1.222222 1.08333,1.833333 0.25001,0.694459 0.5,1.388889 0.75,2.083334 0.33334,0.888906 0.66667,1.777777 1,2.666666 0.22223,0.83335 0.44445,1.666667 0.66667,2.5 0.25,12.833591 0.49998,25.66564 0.75,38.500001 0.0278,0 0.0555,0 0.0833,0 -1.94449,-1.138912 -3.8889,-2.277784 -5.83334,-3.416667 -1.11113,-0.527789 -2.22222,-1.055556 -3.33333,-1.583334 -0.94447,-0.277783 -1.88889,-0.555555 -2.83334,-0.833333 -1.02779,-0.33334 -2.05555,-0.666667 -3.08333,-1 -1.38892,-0.388897 -2.77778,-0.777778 -4.16667,-1.166667 -1.41669,-0.305561 -2.83333,-0.611111 -4.25,-0.916666 -1.30558,-0.250005 -2.61111,-0.5 -3.91666,-0.75 -1.50003,-0.194449 -3,-0.388889 -4.5,-0.583334 -1.86115,-0.16667 -3.72223,-0.333333 -5.58334,-0.5 -2.22226,-0.02778 -4.44444,-0.05555 -6.66666,-0.08333 -1.55559,0.02778 -3.11111,0.05556 -4.66667,0.08333 -2.88895,0 -5.77778,0 -8.66667,0 -1.97226,0.138892 -3.94444,0.277778 -5.91666,0.416667 -2.4445,0.194448 -4.88889,0.388889 -7.33334,0.583333 -2.16671,0.416675 -4.33333,0.833334 -6.5,1.25 -1.50003,0.277784 -3,0.555556 -4.5,0.833334 -1.05557,0.305561 -2.11111,0.611111 -3.16666,0.916666 -1.0278,0.361119 -2.05556,0.722223 -3.08334,1.083334 -0.94446,0.444453 -1.88889,0.888889 -2.83333,1.333333 -1.00002,0.611123 -2,1.222222 -3,1.833333 -1.25003,0.777796 -2.49919,1.555051 -3.75,2.333334 -0.0278,-0.166774 -0.0555,-0.333331 -0.0833,-0.499997 -0.0833,0.138888 -0.16664,0.277775 -0.24996,0.416663 z"
       sodipodi:nodetypes="cccccccccccccccccccccccccccccccccccccccccccccccccccccccccccccccccc"
       inkscape:label="hood" />
    <path
       style="fill:none"
       d="m 119.50105,120.28672 c 0.15713,-0.94281 1.02137,-1.57135 2.67131,-1.84634 1.64994,-0.27498 4.08548,-0.19642 14.77084,-0.19642 10.68536,0 29.61973,-0.0786 39.67637,0.19643 10.05664,0.27499 11.23513,0.90352 11.58868,1.76777 0.35355,0.86426 -0.11785,1.96418 -0.4714,3.18199 -0.35356,1.21781 -0.58926,2.55342 -1.02138,16.14585 -0.43213,13.59242 -1.06066,39.44058 -1.37493,52.32562 -0.31427,12.88504 -0.31427,12.80651 -0.31427,12.72794 -6.44253,-1.09994 -12.88505,-2.19989 -19.28836,-2.71057 -6.40331,-0.51069 -12.76714,-0.43213 -17.2848,-0.31427 -4.51765,0.11785 -7.18889,0.27498 -9.89949,0.54997 -2.71061,0.275 -5.46041,0.66782 -7.9353,1.09995 -2.4749,0.43212 -4.67475,0.90352 -6.0104,1.21779 -1.33565,0.31427 -1.80704,0.4714 -2.27845,0.62854 -0.2357,-25.37728 -0.4714,-50.75456 -0.78567,-64.30746 -0.31428,-13.55289 -0.7071,-15.28134 -1.17852,-16.77414 -0.47141,-1.49279 -1.02137,-2.74984 -0.86423,-3.69265 z"
       id="path3"
       inkscape:path-effect="#path-effect3"
       inkscape:original-d="m 118.79394,119.97245 c 0.86424,-0.62854 1.72848,-1.25708 2.59272,-1.88562 2.43564,0.0786 4.87118,0.15714 7.30677,0.2357 18.93513,-0.0786 37.8695,-0.15713 56.80425,-0.2357 1.17853,0.62855 2.35702,1.25708 3.53553,1.88562 -0.47141,1.09997 -0.94281,2.19989 -1.41421,3.29983 -0.23571,1.33568 -0.47141,2.67129 -0.70711,4.00694 -0.62855,25.8492 -1.25708,51.69736 -1.88562,77.54604 0,-0.0786 0,-0.2357 0,-0.2357 0,0 -12.88505,-2.19989 -19.32758,-3.29983 -6.36409,0.0786 -12.72792,0.15714 -19.09188,0.2357 -2.67135,0.15714 -5.34259,0.31427 -8.01388,0.47141 -2.74992,0.39284 -5.49972,0.78567 -8.24958,1.17851 -2.19993,0.47141 -4.39978,0.94281 -6.59966,1.41421 -0.47142,0.15714 -1.41422,0.47141 -1.41422,0.47141 0,0 -0.4714,-50.75456 -0.7071,-76.13183 -0.39285,-1.72852 -0.78568,-3.45697 -1.17851,-5.18545 -0.54999,-1.25711 -1.09995,-2.51416 -1.64992,-3.77124 z"
       sodipodi:nodetypes="cccccccccccccccccc"
       inkscape:label="roof" />
    <path
       style="fill:none"
       d="m 107.71593,242.06622 c 1.76777,-1.61063 3.53551,-3.22123 5.12653,-4.71404 1.59102,-1.49281 3.00517,-2.86768 4.36049,-4.223 1.35531,-1.35532 2.65165,-2.69094 3.94801,-4.02659 2.51416,1.02138 5.02832,2.04276 7.0318,2.78916 2.00349,0.74639 3.49624,1.21779 5.06761,1.61063 1.57136,0.39284 3.22124,0.7071 5.34259,0.98209 2.12134,0.27499 4.71401,0.51069 7.69961,0.62854 2.9856,0.11785 6.36393,0.11785 9.42809,0.0786 3.06415,-0.0393 5.81396,-0.11785 8.36742,-0.27499 2.55347,-0.15713 4.91044,-0.39283 7.38534,-0.82496 2.4749,-0.43212 5.06757,-1.06065 7.58176,-1.88562 2.51418,-0.82497 4.94972,-1.84632 7.38531,-2.8677 1.88562,1.96419 3.77123,3.92837 5.814,6.12828 2.04278,2.19991 4.24263,4.63546 6.44252,7.07105 -0.47141,1.80705 -0.94281,3.6141 -1.64993,5.42117 -0.70712,1.80706 -1.64991,3.61408 -2.78915,5.14616 -1.13924,1.53207 -2.47486,2.78913 -4.04622,3.73195 -1.57137,0.94281 -3.37838,1.57133 -5.5783,2.08202 -2.19991,0.5107 -4.79259,0.90353 -7.54247,1.17852 -2.74989,0.27499 -5.65683,0.43212 -9.03527,0.62854 -3.37843,0.19642 -7.22816,0.43212 -11.15657,0.58925 -3.92841,0.15714 -7.93527,0.2357 -11.35298,0.15713 -3.41771,-0.0786 -6.24608,-0.31427 -9.23167,-0.62854 -2.9856,-0.31427 -6.12823,-0.7071 -8.52455,-1.06066 -2.39633,-0.35356 -4.04621,-0.66782 -5.85328,-1.13923 -1.80707,-0.47141 -3.77122,-1.09994 -5.18544,-1.88562 -1.41422,-0.78568 -2.27845,-1.72847 -3.1427,-2.98557 -0.86425,-1.25709 -1.72848,-2.82841 -2.47487,-4.36049 -0.7464,-1.53208 -1.37492,-3.02483 -1.9249,-4.24264 -0.54998,-1.2178 -1.02137,-2.16059 -1.49278,-3.1034 z"
       id="path4"
       inkscape:path-effect="#path-effect4"
       inkscape:original-d="m 107.71593,242.06622 c 0,0 3.53551,-3.22123 5.30331,-4.83189 1.41424,-1.37496 2.82839,-2.74983 4.24263,-4.12479 1.29639,-1.33568 3.88909,-4.00695 3.88909,-4.00695 0,0 5.02832,2.04276 7.54247,3.06414 1.49282,0.47141 2.98557,0.94281 4.47835,1.41421 1.64995,0.31428 3.29983,0.62854 4.94974,0.94281 2.59278,0.23571 5.18545,0.4714 7.77818,0.70711 3.37847,0 6.7568,0 10.1352,0 2.74991,-0.0786 5.49972,-0.15714 8.24958,-0.23571 2.35707,-0.2357 4.71404,-0.4714 7.07106,-0.7071 2.59278,-0.62856 5.18545,-1.25708 7.77818,-1.88562 2.43564,-1.0214 7.30677,-3.06413 7.30677,-3.06413 0,0 3.77123,3.92837 5.65685,5.89256 2.19993,2.43563 6.59967,7.30677 6.59967,7.30677 0,0 -0.94281,3.6141 -1.41422,5.42115 -0.94283,1.80708 -1.88562,3.6141 -2.82843,5.42115 -1.33567,1.2571 -2.67129,2.51416 -4.00693,3.77124 -1.80709,0.62855 -3.6141,1.25707 -5.42116,1.88561 -2.59277,0.39285 -5.18545,0.78568 -7.77817,1.17852 -2.90705,0.15713 -5.81399,0.31427 -8.72098,0.4714 -3.84988,0.23571 -7.69961,0.4714 -11.54941,0.70711 -4.00702,0.0786 -8.01388,0.15713 -12.02082,0.2357 -2.82848,-0.23571 -5.65685,-0.47141 -8.48528,-0.70711 -3.14276,-0.39284 -6.28539,-0.78567 -9.42809,-1.17851 -1.64995,-0.31427 -3.29983,-0.62854 -4.94975,-0.94281 -1.96422,-0.62855 -3.92837,-1.25708 -5.89256,-1.88562 -0.86425,-0.94282 -1.72848,-1.88561 -2.59272,-2.82842 -0.86426,-1.57138 -1.72848,-3.1427 -2.59273,-4.71405 -0.62855,-1.49281 -1.25707,-2.98556 -1.88561,-4.47834 -0.47142,-0.94283 -1.41422,-2.82843 -1.41422,-2.82843 z"
       inkscape:label="trunk"
       sodipodi:nodetypes="ccccccccccccccccccccccccccccccc" />
    <path
       style="fill:none"
       d="m 29.388889,88.222222 c 5.833333,0.111111 17.05533,0.444438 23.493164,0.996635 6.437834,0.552197 8.090987,1.32322 9.744174,2.094258 0.235702,-4.326594 0.471399,-8.653101 0.478139,-12.872038 0.0067,-4.218937 -0.215477,-8.329966 -0.437701,-12.163335 -0.222225,-3.833369 -0.444443,-7.388853 -0.833337,-10.666661 -0.388895,-3.277808 -0.944439,-6.277748 -1.5,-9.111108 C 59.777767,43.666613 59.222222,41 58.666661,38.666646 58.1111,36.333293 57.555556,34.333333 56.944438,32.499983 56.33332,30.666633 55.666667,29 54.777767,27.055534 c -0.8889,-1.944467 -1.999989,-4.166645 -2.999998,-5.88888 -1.000009,-1.722234 -1.88888,-2.944432 -2.944448,-4.11111 -1.055568,-1.166677 -2.277765,-2.277766 -3.888897,-2.777765 -1.611131,-0.499999 -3.611091,-0.38889 -5.166657,-0.722231 -1.555567,-0.333341 -2.666656,-1.111104 -6.888952,-1.333322 -4.222295,-0.222219 -11.555482,0.111108 -15.499932,0.555558 -3.94445,0.444449 -4.499994,0.999994 -4.722215,5.111181 -0.222221,4.111188 -0.111115,11.777548 -10e-7,15.610958 0.111113,3.83341 0.22222,3.83341 2.055589,4.055637 1.833369,0.222226 5.388783,0.666653 7.388823,0.88888 2.000041,0.222227 2.444476,0.222227 3.388935,0.66668 0.944459,0.444453 2.388875,1.333324 3.55555,2.333336 1.166676,1.000011 2.055547,2.1111 2.944445,3.166665 0.888898,1.055566 1.777769,2.055546 2.499997,3.222226 0.722227,1.16668 1.277771,2.499986 1.666663,3.666663 0.388891,1.166677 0.611109,2.166657 0.72222,3.055554 C 37,55.44446 37,56.222222 37.055557,57.277791 c 0.05556,1.055569 0.166665,2.388876 0.222221,3.611109 0.05556,1.222233 0.05556,2.333322 -0.166672,3.444444 -0.222226,1.111123 -0.666662,2.222212 -1.222224,3.388891 -0.555562,1.166678 -1.222215,2.388876 -1.944445,3.44444 -0.72223,1.055565 -1.499993,1.944436 -2.444448,2.777777 -0.944456,0.833341 -2.055545,1.611104 -3.61112,2.166662 -1.555575,0.555559 -3.555535,0.888886 -5.555535,1.222219 0.111111,3.666667 0.22222,7.333259 0.500003,9.111073 0.277783,1.777814 0.722219,1.666705 6.555552,1.777816 z"
       id="path5"
       inkscape:path-effect="#path-effect5"
       inkscape:original-d="m 24,88 c 11.222222,0.333333 22.444219,0.66666 33.666667,1 1.65322,0.771054 4.95956,2.313115 4.95956,2.313115 0,0 0.471399,-8.653101 0.707106,-12.979782 C 63.111107,74.22214 62.888889,70.111111 62.666667,66 62.44444,62.444373 62.222222,58.888889 62,55.333333 c -0.555567,-3.00006 -1.111111,-6 -1.666667,-9 -0.555566,-2.66672 -1.111111,-5.333333 -1.666666,-8 -0.555567,-2.00004 -1.111111,-4 -1.666667,-6 -0.66668,-1.6667 -1.333333,-3.333333 -2,-5 C 53.888867,25.111067 52.777778,22.888889 51.666667,20.666667 50.77776,19.44442 49.888889,18.222222 49,17 c -1.222247,-1.111133 -2.444444,-2.222222 -3.666667,-3.333333 -2.00004,0.111113 -4,0.222222 -6,0.333333 C 38.2222,13.222207 37.111111,12.444444 36,11.666667 c -7.33348,0.33334 -14.666667,0.666666 -22,1 -0.555567,0.555566 -1.111111,1.111111 -1.666667,1.666666 0.111114,7.66682 0.22222,15.33318 0.333334,23 0.111113,0 0.22222,0 0.333333,0 3.555625,0.444453 7.111039,0.88888 10.666666,1.333334 0.444454,0 0.888889,0 1.333334,0 1.444473,0.888906 2.888889,1.777777 4.333333,2.666666 0.888907,1.111134 1.777778,2.222223 2.666667,3.333334 0.888907,1.00002 1.777778,2 2.666667,3 0.555566,1.33336 1.111111,2.666666 1.666666,4 0.222227,1.00002 0.444445,2 0.666667,3 0,0.777793 0,1.555555 0,2.333333 0.111113,1.33336 0.222222,2.666667 0.333333,4 0,1.111133 0,2.222222 0,3.333333 C 36.88888,65.444467 36.444444,66.555556 36,67.666667 35.33332,68.888913 34.666667,70.111111 34,71.333333 33.222207,72.22224 32.444444,73.111111 31.666667,74 c -1.111134,0.777793 -2.222223,1.555556 -3.333334,2.333333 -2.000039,0.33334 -5.999999,1 -5.999999,1 0,0 0.22222,7.333259 0.333333,11.000001 C 23.11112,88.22222 23.555556,88.111111 24,88 Z"
       sodipodi:nodetypes="cccccccccccccccccccccccccccccccccccc"
       inkscape:label="front left fender" />
    <path
       style="fill:none"
       d="m 62.755922,90.333333 c 0.04882,-0.666666 0.146447,-2 0.250819,-3.222233 0.104372,-1.222233 0.215481,-2.333322 0.264296,-3.356344 0.04882,-1.023022 0.03534,-1.957915 0.02186,-2.892828 2.235702,2.60158 4.471405,5.20316 6.644833,7.726196 2.173427,2.523036 4.284496,4.967432 5.951175,7.023004 1.666679,2.055572 2.888877,3.722205 3.999998,5.500002 1.111122,1.7778 2.111101,3.66665 3.018121,5.43417 0.907019,1.76752 1.721025,3.4136 2.560167,5.17949 0.839143,1.76589 1.703368,3.65147 2.449764,5.5371 0.746396,1.88564 1.374922,3.77122 2.082036,5.89257 0.707115,2.12134 1.492772,4.47831 2.082033,6.83536 0.58926,2.35705 0.982089,4.71402 1.296361,6.91393 0.314273,2.19991 0.54997,4.24262 0.74639,6.48181 0.19642,2.2392 0.353552,4.67474 0.43212,7.14964 0.07857,2.4749 0.07857,4.98901 0.03928,7.7389 -0.03928,2.74989 -0.11785,5.73539 -0.29463,8.50491 -0.176779,2.76953 -0.451759,5.32292 -0.785675,7.89603 -0.333915,2.57311 -0.726744,5.16578 -1.178512,7.56211 -0.451768,2.39633 -0.962448,4.59618 -1.55171,6.91394 -0.589262,2.31776 -1.257071,4.7533 -1.767763,6.77643 -0.510692,2.02313 -0.864238,3.63373 -1.25708,4.94974 -0.392841,1.31602 -0.824952,2.33737 -1.257073,3.35875 -1.532065,-1.6892 -3.064129,-3.3784 -4.596194,-5.0676 0.667823,-2.23917 1.335646,-4.47834 2.042761,-6.7961 0.707115,-2.31777 1.453491,-4.71403 2.082034,-7.07107 0.628544,-2.35705 1.139222,-4.67474 1.610631,-7.34606 0.471409,-2.67133 0.90352,-5.69611 1.296361,-9.17276 0.392841,-3.47665 0.746387,-7.40494 0.962449,-10.50838 0.216061,-3.10343 0.294627,-5.38184 0.314268,-6.61928 0.01964,-1.23744 -0.01964,-1.43385 -0.05893,-1.63027 -7.833731,0.25197 -15.667461,0.50395 -23.501191,0.75592 -0.101578,-2.05903 -0.203155,-4.11805 -0.304733,-6.17708 7.817458,-0.2357 15.634917,-0.4714 23.452375,-0.7071 -0.31427,-2.1606 -0.62854,-4.32121 -1.001739,-6.38362 -0.3732,-2.06242 -0.805311,-4.02656 -1.276721,-5.9122 -0.471411,-1.88564 -0.982088,-3.69265 -1.512423,-5.34258 -0.530336,-1.64993 -1.080297,-3.14268 -1.610633,-4.57655 -0.530335,-1.43387 -1.041012,-2.80877 -1.630276,-4.16407 -0.589263,-1.35531 -1.257073,-2.69093 -2.317748,-4.43907 -1.060674,-1.74815 -2.514142,-3.90871 -4.006937,-5.95148 -1.492795,-2.04277 -3.024832,-3.96764 -4.340846,-5.57828 -1.316014,-1.610647 -2.415936,-2.906984 -3.574818,-4.164075 -1.158882,-1.257091 -2.376652,-2.474861 -3.280183,-3.35875 -0.903532,-0.883889 -1.492775,-1.43385 -2.082031,-1.983822 -0.1537,-0.347244 -0.3074,-0.694489 -0.384249,-0.868111 C 62.707112,91 62.707107,91 62.755922,90.333333 Z"
       id="path6"
       inkscape:path-effect="#path-effect6"
       inkscape:original-d="M 62.707107,91 C 62.804738,89.666667 62.902369,88.333333 63,87 c 0.111113,-1.111133 0.222222,-2.222222 0.333333,-3.333333 -0.01348,-0.934933 -0.04044,-2.804739 -0.04044,-2.804739 0,0 4.471405,5.20316 6.707107,7.804739 2.111153,2.444493 4.222222,4.888889 6.333333,7.333333 1.222247,1.6667 2.444445,3.333333 3.666667,5 1.00002,1.88893 2,3.77778 3,5.66667 0.814039,1.64615 1.628046,3.29223 2.442069,4.93835 0.864259,1.88566 1.728484,3.77124 2.592725,5.65685 0.628552,1.88566 1.257079,3.77124 1.885618,5.65686 0.78569,2.35707 1.571349,4.71404 2.357023,7.07107 0.392845,2.35707 0.785674,4.71404 1.178511,7.07106 0.235707,2.0428 0.471405,4.08551 0.707107,6.12826 0.157138,2.43564 0.31427,4.87118 0.471405,7.30677 0,2.51421 0,5.02832 0,7.54248 -0.07857,2.98562 -0.157135,5.97112 -0.235703,8.95668 -0.274991,2.55349 -0.549972,5.10688 -0.824958,7.66033 -0.392845,2.59277 -0.785674,5.18544 -1.178511,7.77817 -0.510698,2.19993 -1.021376,4.39978 -1.532065,6.59966 -0.667836,2.43564 -1.335646,4.87118 -2.003469,7.30677 -0.35356,1.61067 -0.707107,3.22127 -1.06066,4.8319 -0.432129,1.0214 -1.296362,3.06413 -1.296362,3.06413 -1.532065,-1.6892 -3.064129,-3.3784 -4.596194,-5.0676 0,0 1.335646,-4.47834 2.003469,-6.71751 0.746405,-2.39636 1.492781,-4.79262 2.239171,-7.18892 0.510699,-2.31779 1.021377,-4.63548 1.532065,-6.95322 0.432129,-3.02491 0.864242,-6.04969 1.296362,-9.07454 0.353561,-3.92845 0.707107,-7.85674 1.060661,-11.78511 0.07857,-2.2785 0.157134,-4.55691 0.235702,-6.83537 -0.03929,-0.19642 -0.117851,-0.58925 -0.117851,-0.58925 -7.833731,0.25197 -23.501191,0.75592 -23.501191,0.75592 -0.101578,-2.05903 -0.304733,-6.17708 -0.304733,-6.17708 0,0 15.634917,-0.4714 23.452375,-0.7071 0,0 -0.628539,-4.32121 -0.942809,-6.48181 -0.432129,-1.96423 -0.864241,-3.92837 -1.296362,-5.89256 -0.510699,-1.80709 -1.021377,-3.6141 -1.532065,-5.42115 -0.549983,-1.49281 -1.099944,-2.98556 -1.649916,-4.47834 -0.510698,-1.37496 -1.021376,-2.74986 -1.532064,-4.12479 -0.667837,-1.33568 -1.335647,-2.6713 -2.00347,-4.00694 -1.453526,-2.16065 -2.906994,-4.32121 -4.360491,-6.48181 -1.532096,-1.92494 -3.06413,-3.84981 -4.596195,-5.77471 -1.099965,-1.296387 -2.199887,-2.592724 -3.299831,-3.889086 -1.21782,-1.21782 -2.43559,-2.43559 -3.653385,-3.653385 -0.589268,-0.549983 -1.767767,-1.649916 -1.767767,-1.649916 0,0 -0.3074,-0.694489 -0.461099,-1.041733 z"
       sodipodi:nodetypes="ccccccccccscccccccccccccccccccccccccccccccccccc"
       inkscape:label="roof edg Left" />
    <path
       style="fill:none"
       d="M 23.333333,88.666667 C 30,88.888889 36.666667,89.111111 41.611144,89.277779 c 4.944476,0.166668 8.166634,0.277777 10.777765,0.444446 2.611131,0.166668 4.611091,0.388886 6.143645,0.712114 1.532555,0.323227 2.597621,0.747443 3.662708,1.171668 0.379357,5.797998 0.758714,11.596003 1.226176,17.495053 0.467462,5.89906 1.023006,11.89894 1.457633,17.44472 0.434627,5.54579 0.748305,10.63705 0.932932,14.05211 0.184627,3.41505 0.24018,5.1535 0.295734,6.892 -2.397025,-0.12064 -4.794001,-0.24128 -11.867656,-0.43404 -7.073655,-0.19276 -18.823418,-0.45762 -30.573418,-0.72249 z"
       id="path7"
       sodipodi:nodetypes="cccccccccccc"
       inkscape:label="front left door"
       inkscape:original-d="m 23.333333,88.666667 c 0,0 13.333334,0.444444 20,0.666666 3.222287,0.111114 6.444445,0.222223 9.666667,0.333334 2.00004,0.222226 4,0.444444 6,0.666666 1.065109,0.424233 3.195262,1.272674 3.195262,1.272674 0,0 0.758714,11.596003 1.138071,17.393993 0.555567,6.00012 1.111111,12 1.666667,18 0.313698,5.09157 0.627376,10.18283 0.941074,15.2744 0.05556,1.73854 0.166663,5.21549 0.166663,5.21549 0,0 -4.794001,-0.24128 -7.191074,-0.36193 -11.750237,-0.26487 -35.25,-0.7946 -35.25,-0.7946 z"
       inkscape:path-effect="#path-effect7" />
    <path
       style="fill:none"
       d="m 23.666667,146.66667 c 12,0.27778 24,0.55555 30.380762,0.70258 6.380763,0.14702 7.142235,0.16328 8.062289,0.19919 0.920055,0.0359 1.998553,0.0915 2.69303,0.13552 0.694477,0.0441 1.004781,0.0766 1.315103,0.10919 0.303581,4.35298 0.607157,8.70587 1.031967,12.87599 0.424811,4.17011 0.970825,8.15713 1.493842,12.42851 0.523017,4.27137 1.023007,8.82683 1.495233,12.99354 0.472227,4.1667 0.916663,7.94441 1.361112,11.1111 0.444449,3.16669 0.888884,5.72219 1.333328,8.27775 -1.277778,0.94444 -2.555557,1.88889 -3.694459,2.13887 -1.138903,0.24999 -2.13888,-0.19446 -9.666796,-5.33345 C 51.944163,197.16647 37.888889,187.33333 23.833333,177.5 Z"
       id="path8"
       inkscape:path-effect="#path-effect8"
       inkscape:original-d="m 23.666667,146.66667 c 0,0 24,0.55555 36,0.83333 0.761524,0.0163 1.522998,0.0325 2.284517,0.0488 1.078586,0.0556 2.157087,0.1111 3.235702,0.16665 0.310336,0.0326 0.930965,0.0977 0.930965,0.0977 0,0 0.607157,8.70587 0.910744,13.05893 0.546035,3.98717 1.092048,7.97419 1.638072,11.96129 0.50001,4.55565 1,9.11111 1.5,13.66667 0.444453,3.77785 0.888889,7.55556 1.333333,11.33333 0.444453,2.55561 1.333333,7.66667 1.333333,7.66667 0,0 -2.555555,1.88889 -3.833333,2.83333 C 67.99998,207.88888 67,207.44444 66,207 51.944163,197.16647 23.833333,177.5 23.833333,177.5 Z"
       sodipodi:nodetypes="cccccccccccccc"
       inkscape:label="rear left door" />
    <path
       style="fill:none"
       d="m 23.688077,177.60166 c 0,4.67476 0,9.34952 0,14.02428 1.06066,0.35355 2.121319,0.70711 3.162347,1.2178 1.041028,0.51069 2.062384,1.1785 3.005202,1.88562 0.942818,0.70711 1.807044,1.45349 2.592725,2.31774 0.78568,0.86425 1.492771,1.84632 2.160602,2.907 0.667831,1.06067 1.296356,2.19987 1.80705,3.31947 0.510694,1.1196 0.903523,2.21952 1.257079,3.41768 0.353556,1.19817 0.66782,2.49451 0.766028,3.88909 0.09821,1.39459 -0.01964,2.88734 -0.235705,4.24264 -0.216064,1.3553 -0.530327,2.57307 -0.903526,3.71231 -0.3732,1.13924 -0.805312,2.19988 -1.355291,3.26055 -0.549978,1.06067 -1.217788,2.12131 -2.00347,3.02484 -0.785682,0.90353 -1.689192,1.64991 -2.749865,2.41595 -1.060672,0.76604 -2.278444,1.5517 -3.476608,2.19988 -1.198164,0.64819 -2.376652,1.15887 -3.496248,1.61064 -1.119595,0.45176 -2.180235,0.84459 -3.221264,1.06065 -1.04103,0.21606 -2.062386,0.25535 -2.396294,1.2571 -0.333908,1.00175 0.01964,2.9659 0.31427,4.51762 0.29463,1.55172 0.530327,2.69092 0.824958,3.9873 0.294631,1.29637 0.648178,2.74984 1.060663,4.41942 0.412484,1.66958 0.883879,3.55516 1.37493,5.49972 0.491051,1.94456 1.001729,3.94799 1.374926,5.55864 0.373198,1.61064 0.608895,2.82841 0.8446,3.53552 0.235705,0.70711 0.471401,0.90352 0.982099,0.96245 0.510699,0.0589 1.296354,-0.0196 3.201644,-0.15714 1.905291,-0.13749 4.930076,-0.33391 7.935309,-0.53033 3.005234,-0.19642 5.990736,-0.39283 8.760263,-0.6089 2.769528,-0.21606 5.322918,-0.45176 7.679962,-0.66782 2.357044,-0.21606 4.517605,-0.41247 6.894295,-0.58925 2.376691,-0.17678 4.969364,-0.33391 6.619287,-0.62855 1.649923,-0.29463 2.357015,-0.72674 2.887349,-1.49278 0.530335,-0.76605 0.883881,-1.86597 1.139226,-3.31948 0.255345,-1.45352 0.412477,-3.26053 0.569613,-5.10689 0.157137,-1.84635 0.314268,-3.73193 0.549973,-5.38186 0.235706,-1.64993 0.54997,-3.06412 0.942812,-4.28192 0.392842,-1.21781 0.864235,-2.23916 1.492782,-3.81053 0.628548,-1.57137 1.414207,-3.69265 2.121319,-5.51936 0.707113,-1.8267 1.335642,-3.35874 2.062399,-5.14617 0.726758,-1.78743 1.551698,-3.83014 2.396307,-6.01041 0.844608,-2.18027 1.708831,-4.49796 2.47487,-6.30502 0.76604,-1.80707 1.433846,-3.1034 2.023108,-4.24264 0.589261,-1.13924 1.099941,-2.12132 1.610629,-3.10341 -1.807049,-2.04275 -3.614103,-4.08551 -5.421152,-6.12826 -1.37493,1.29636 -2.749862,2.59273 -3.869456,3.61411 -1.119594,1.02139 -1.98382,1.76777 -3.103418,2.57309 -1.119597,0.80533 -2.4945,1.66955 -3.476599,2.21952 -0.9821,0.54998 -1.57134,0.78568 -1.96418,0.90353 -0.39284,0.11785 -0.589251,0.11785 -1.139233,-0.0982 -0.549982,-0.21606 -1.453486,-0.64817 -8.858608,-5.75516 -7.405122,-5.10698 -21.311275,-14.88842 -35.217709,-24.67006 z"
       id="path9"
       inkscape:path-effect="#path-effect9"
       inkscape:original-d="m 23.688077,177.60166 c 0,0 0,9.34952 0,14.02428 0,0 2.121321,0.7071 3.181981,1.06066 1.021397,0.66783 2.042753,1.33564 3.064129,2.00347 0.864259,0.7464 1.728483,1.49278 2.592725,2.23917 0.707121,0.98211 1.414214,1.96418 2.12132,2.94628 0.628552,1.13925 1.257079,2.27845 1.885618,3.41768 0.392845,1.09997 0.785675,2.19989 1.178512,3.29983 0.314276,1.29639 0.628539,2.59273 0.942809,3.88909 -0.117854,1.49281 -0.235703,2.98556 -0.353554,4.47834 -0.314276,1.21782 -0.628539,2.43559 -0.942809,3.65339 -0.432129,1.06068 -0.864241,2.12132 -1.296362,3.18198 -0.667837,1.06068 -1.335646,2.12132 -2.003469,3.18198 -0.903544,0.7464 -1.807051,1.49278 -2.710576,2.23917 -1.21782,0.78569 -2.43559,1.57135 -3.653385,2.35702 -1.178535,0.5107 -2.357023,1.02138 -3.535534,1.53207 -1.060682,0.39284 -2.121321,0.78567 -3.181981,1.17851 -1.021397,0.0393 -2.042753,0.0786 -3.064129,0.11785 0.35356,1.96422 0.707107,3.92837 1.06066,5.89256 0.235707,1.13925 0.471404,2.27845 0.707107,3.41768 0.35356,1.45352 0.707107,2.90699 1.06066,4.36049 0.471414,1.88566 0.942809,3.77124 1.414213,5.65685 0.510699,2.00351 1.021377,4.00694 1.532065,6.01041 0.235707,1.21782 0.471405,2.43559 0.707107,3.65339 0.235707,0.19642 0.471404,0.39283 0.707107,0.58925 0.78569,-0.0786 1.571348,-0.15713 2.357022,-0.2357 3.024907,-0.19642 6.049692,-0.39284 9.074537,-0.58926 2.985622,-0.19642 5.971124,-0.39283 8.956686,-0.58925 2.553493,-0.23571 5.106883,-0.47141 7.660324,-0.70711 2.160647,-0.19642 4.321208,-0.39283 6.481812,-0.58925 2.592777,-0.15714 5.18545,-0.31427 7.778175,-0.47141 0.70712,-0.43213 1.414213,-0.86424 2.12132,-1.29636 0.35356,-1.09997 0.707107,-2.19989 1.06066,-3.29983 0.157138,-1.80709 0.31427,-3.6141 0.471405,-5.42115 0.157138,-1.88566 0.314269,-3.77124 0.471404,-5.65686 0.314276,-1.41424 0.628539,-2.82843 0.942809,-4.24264 0.471414,-1.0214 0.942809,-2.04275 1.414214,-3.06413 0.78569,-2.12136 1.571348,-4.24264 2.357022,-6.36396 0.628552,-1.53209 1.257079,-3.06413 1.885618,-4.59619 0.824975,-2.0428 1.649916,-4.08551 2.474874,-6.12826 0.864259,-2.31779 1.728483,-4.63548 2.592725,-6.95322 0.667836,-1.29639 1.335646,-2.59272 2.003469,-3.88909 0.510698,-0.98211 1.532065,-2.94628 1.532065,-2.94628 -1.807051,-2.04275 -3.614101,-4.08551 -5.421152,-6.12826 0,0 -2.74986,2.59273 -4.12479,3.88909 -0.864259,0.74641 -1.728485,1.49279 -2.592725,2.23918 -1.374954,0.86426 -2.749859,1.72848 -4.124789,2.59272 -0.589268,0.23571 -1.178511,0.4714 -1.767767,0.70711 -0.196422,0 -0.392833,0 -0.589256,0 -0.903542,-0.43213 -1.807047,-0.86424 -2.710576,-1.29637 -13.906713,-9.78184 -41.7193,-29.34492 -41.7193,-29.34492 z"
       sodipodi:nodetypes="ccccccccccccccccccccccccccccccccccccccccccccccccccc"
       inkscape:label="rear left fender" />
    <path
       style="fill:none"
       d="m 61.891484,190.68313 c -0.176775,0.74639 -0.09821,2.19989 0.157141,2.92663 0.255348,0.72675 0.68746,0.72675 0.864236,-0.0197 0.176776,-0.7464 0.09821,-2.23915 -0.157139,-2.9659 -0.255349,-0.72675 -0.687462,-0.68746 -0.864238,0.0589 z"
       id="path10"
       transform="matrix(1.8250463,0,0,2.3162983,-54.813748,-308.43022)"
       sodipodi:nodetypes="ccccc"
       inkscape:original-d="m 61.636141,189.97602 c 0.07857,1.4535 0.157135,2.907 0.235702,4.36049 0.43213,0 0.864242,0 1.296363,0 -0.07857,-1.49281 -0.157135,-2.98556 -0.235702,-4.47834 -0.43213,0.0393 -0.864241,0.0786 -1.296363,0.11785 z"
       inkscape:path-effect="#path-effect10" />
    <path
       style="fill:none"
       d="m 29.388889,88.222222 c 5.833333,0.111111 17.05533,0.444438 23.493164,0.996635 6.437834,0.552197 8.090987,1.32322 9.744174,2.094258 0.235702,-4.326594 0.471399,-8.653101 0.478139,-12.872038 0.0067,-4.218937 -0.215477,-8.329966 -0.437701,-12.163335 -0.222225,-3.833369 -0.444443,-7.388853 -0.833337,-10.666661 -0.388895,-3.277808 -0.944439,-6.277748 -1.5,-9.111108 C 59.777767,43.666613 59.222222,41 58.666661,38.666646 58.1111,36.333293 57.555556,34.333333 56.944438,32.499983 56.33332,30.666633 55.666667,29 54.777767,27.055534 c -0.8889,-1.944467 -1.999989,-4.166645 -2.999998,-5.88888 -1.000009,-1.722234 -1.88888,-2.944432 -2.944448,-4.11111 -1.055568,-1.166677 -2.277765,-2.277766 -3.888897,-2.777765 -1.611131,-0.499999 -3.611091,-0.38889 -5.166657,-0.722231 -1.555567,-0.333341 -2.666656,-1.111104 -6.888952,-1.333322 -4.222295,-0.222219 -11.555482,0.111108 -15.499932,0.555558 -3.94445,0.444449 -4.499994,0.999994 -4.722215,5.111181 -0.222221,4.111188 -0.111115,11.777548 -10e-7,15.610958 0.111113,3.83341 0.22222,3.83341 2.055589,4.055637 1.833369,0.222226 5.388783,0.666653 7.388823,0.88888 2.000041,0.222227 2.444476,0.222227 3.388935,0.66668 0.944459,0.444453 2.388875,1.333324 3.55555,2.333336 1.166676,1.000011 2.055547,2.1111 2.944445,3.166665 0.888898,1.055566 1.777769,2.055546 2.499997,3.222226 0.722227,1.16668 1.277771,2.499986 1.666663,3.666663 0.388891,1.166677 0.611109,2.166657 0.72222,3.055554 C 37,55.44446 37,56.222222 37.055557,57.277791 c 0.05556,1.055569 0.166665,2.388876 0.222221,3.611109 0.05556,1.222233 0.05556,2.333322 -0.166672,3.444444 -0.222226,1.111123 -0.666662,2.222212 -1.222224,3.388891 -0.555562,1.166678 -1.222215,2.388876 -1.944445,3.44444 -0.72223,1.055565 -1.499993,1.944436 -2.444448,2.777777 -0.944456,0.833341 -2.055545,1.611104 -3.61112,2.166662 -1.555575,0.555559 -3.555535,0.888886 -5.555535,1.222219 0.111111,3.666667 0.22222,7.333259 0.500003,9.111073 0.277783,1.777814 0.722219,1.666705 6.555552,1.777816 z"
       id="path11"
       inkscape:path-effect="#path-effect18"
       inkscape:original-d="m 24,88 c 11.222222,0.333333 22.444219,0.66666 33.666667,1 1.65322,0.771054 4.95956,2.313115 4.95956,2.313115 0,0 0.471399,-8.653101 0.707106,-12.979782 C 63.111107,74.22214 62.888889,70.111111 62.666667,66 62.44444,62.444373 62.222222,58.888889 62,55.333333 c -0.555567,-3.00006 -1.111111,-6 -1.666667,-9 -0.555566,-2.66672 -1.111111,-5.333333 -1.666666,-8 -0.555567,-2.00004 -1.111111,-4 -1.666667,-6 -0.66668,-1.6667 -1.333333,-3.333333 -2,-5 C 53.888867,25.111067 52.777778,22.888889 51.666667,20.666667 50.77776,19.44442 49.888889,18.222222 49,17 c -1.222247,-1.111133 -2.444444,-2.222222 -3.666667,-3.333333 -2.00004,0.111113 -4,0.222222 -6,0.333333 C 38.2222,13.222207 37.111111,12.444444 36,11.666667 c -7.33348,0.33334 -14.666667,0.666666 -22,1 -0.555567,0.555566 -1.111111,1.111111 -1.666667,1.666666 0.111114,7.66682 0.22222,15.33318 0.333334,23 0.111113,0 0.22222,0 0.333333,0 3.555625,0.444453 7.111039,0.88888 10.666666,1.333334 0.444454,0 0.888889,0 1.333334,0 1.444473,0.888906 2.888889,1.777777 4.333333,2.666666 0.888907,1.111134 1.777778,2.222223 2.666667,3.333334 0.888907,1.00002 1.777778,2 2.666667,3 0.555566,1.33336 1.111111,2.666666 1.666666,4 0.222227,1.00002 0.444445,2 0.666667,3 0,0.777793 0,1.555555 0,2.333333 0.111113,1.33336 0.222222,2.666667 0.333333,4 0,1.111133 0,2.222222 0,3.333333 C 36.88888,65.444467 36.444444,66.555556 36,67.666667 35.33332,68.888913 34.666667,70.111111 34,71.333333 33.222207,72.22224 32.444444,73.111111 31.666667,74 c -1.111134,0.777793 -2.222223,1.555556 -3.333334,2.333333 -2.000039,0.33334 -5.999999,1 -5.999999,1 0,0 0.22222,7.333259 0.333333,11.000001 C 23.11112,88.22222 23.555556,88.111111 24,88 Z"
       sodipodi:nodetypes="cccccccccccccccccccccccccccccccccccc"
       inkscape:label="front left fender"
       transform="matrix(-1,0,0,1,307.15934,0)" />
    <path
       style="fill:none"
       d="m 62.755922,90.333333 c 0.04882,-0.666666 0.146447,-2 0.250819,-3.222233 0.104372,-1.222233 0.215481,-2.333322 0.264296,-3.356344 0.04882,-1.023022 0.03534,-1.957915 0.02186,-2.892828 2.235702,2.60158 4.471405,5.20316 6.644833,7.726196 2.173427,2.523036 4.284496,4.967432 5.951175,7.023004 1.666679,2.055572 2.888877,3.722205 3.999998,5.500002 1.111122,1.7778 2.111101,3.66665 3.018121,5.43417 0.907019,1.76752 1.721025,3.4136 2.560167,5.17949 0.839143,1.76589 1.703368,3.65147 2.449764,5.5371 0.746396,1.88564 1.374922,3.77122 2.082036,5.89257 0.707115,2.12134 1.492772,4.47831 2.082033,6.83536 0.58926,2.35705 0.982089,4.71402 1.296361,6.91393 0.314273,2.19991 0.54997,4.24262 0.74639,6.48181 0.19642,2.2392 0.353552,4.67474 0.43212,7.14964 0.07857,2.4749 0.07857,4.98901 0.03928,7.7389 -0.03928,2.74989 -0.11785,5.73539 -0.29463,8.50491 -0.176779,2.76953 -0.451759,5.32292 -0.785675,7.89603 -0.333915,2.57311 -0.726744,5.16578 -1.178512,7.56211 -0.451768,2.39633 -0.962448,4.59618 -1.55171,6.91394 -0.589262,2.31776 -1.257071,4.7533 -1.767763,6.77643 -0.510692,2.02313 -0.864238,3.63373 -1.25708,4.94974 -0.392841,1.31602 -0.824952,2.33737 -1.257073,3.35875 -1.532065,-1.6892 -3.064129,-3.3784 -4.596194,-5.0676 0.667823,-2.23917 1.335646,-4.47834 2.042761,-6.7961 0.707115,-2.31777 1.453491,-4.71403 2.082034,-7.07107 0.628544,-2.35705 1.139222,-4.67474 1.610631,-7.34606 0.471409,-2.67133 0.90352,-5.69611 1.296361,-9.17276 0.392841,-3.47665 0.746387,-7.40494 0.962449,-10.50838 0.216061,-3.10343 0.294627,-5.38184 0.314268,-6.61928 0.01964,-1.23744 -0.01964,-1.43385 -0.05893,-1.63027 -7.833731,0.25197 -15.667461,0.50395 -23.501191,0.75592 -0.101578,-2.05903 -0.203155,-4.11805 -0.304733,-6.17708 7.817458,-0.2357 15.634917,-0.4714 23.452375,-0.7071 -0.31427,-2.1606 -0.62854,-4.32121 -1.001739,-6.38362 -0.3732,-2.06242 -0.805311,-4.02656 -1.276721,-5.9122 -0.471411,-1.88564 -0.982088,-3.69265 -1.512423,-5.34258 -0.530336,-1.64993 -1.080297,-3.14268 -1.610633,-4.57655 -0.530335,-1.43387 -1.041012,-2.80877 -1.630276,-4.16407 -0.589263,-1.35531 -1.257073,-2.69093 -2.317748,-4.43907 -1.060674,-1.74815 -2.514142,-3.90871 -4.006937,-5.95148 -1.492795,-2.04277 -3.024832,-3.96764 -4.340846,-5.57828 -1.316014,-1.610647 -2.415936,-2.906984 -3.574818,-4.164075 -1.158882,-1.257091 -2.376652,-2.474861 -3.280183,-3.35875 -0.903532,-0.883889 -1.492775,-1.43385 -2.082031,-1.983822 -0.1537,-0.347244 -0.3074,-0.694489 -0.384249,-0.868111 C 62.707112,91 62.707107,91 62.755922,90.333333 Z"
       id="path12"
       inkscape:path-effect="#path-effect20"
       inkscape:original-d="M 62.707107,91 C 62.804738,89.666667 62.902369,88.333333 63,87 c 0.111113,-1.111133 0.222222,-2.222222 0.333333,-3.333333 -0.01348,-0.934933 -0.04044,-2.804739 -0.04044,-2.804739 0,0 4.471405,5.20316 6.707107,7.804739 2.111153,2.444493 4.222222,4.888889 6.333333,7.333333 1.222247,1.6667 2.444445,3.333333 3.666667,5 1.00002,1.88893 2,3.77778 3,5.66667 0.814039,1.64615 1.628046,3.29223 2.442069,4.93835 0.864259,1.88566 1.728484,3.77124 2.592725,5.65685 0.628552,1.88566 1.257079,3.77124 1.885618,5.65686 0.78569,2.35707 1.571349,4.71404 2.357023,7.07107 0.392845,2.35707 0.785674,4.71404 1.178511,7.07106 0.235707,2.0428 0.471405,4.08551 0.707107,6.12826 0.157138,2.43564 0.31427,4.87118 0.471405,7.30677 0,2.51421 0,5.02832 0,7.54248 -0.07857,2.98562 -0.157135,5.97112 -0.235703,8.95668 -0.274991,2.55349 -0.549972,5.10688 -0.824958,7.66033 -0.392845,2.59277 -0.785674,5.18544 -1.178511,7.77817 -0.510698,2.19993 -1.021376,4.39978 -1.532065,6.59966 -0.667836,2.43564 -1.335646,4.87118 -2.003469,7.30677 -0.35356,1.61067 -0.707107,3.22127 -1.06066,4.8319 -0.432129,1.0214 -1.296362,3.06413 -1.296362,3.06413 -1.532065,-1.6892 -3.064129,-3.3784 -4.596194,-5.0676 0,0 1.335646,-4.47834 2.003469,-6.71751 0.746405,-2.39636 1.492781,-4.79262 2.239171,-7.18892 0.510699,-2.31779 1.021377,-4.63548 1.532065,-6.95322 0.432129,-3.02491 0.864242,-6.04969 1.296362,-9.07454 0.353561,-3.92845 0.707107,-7.85674 1.060661,-11.78511 0.07857,-2.2785 0.157134,-4.55691 0.235702,-6.83537 -0.03929,-0.19642 -0.117851,-0.58925 -0.117851,-0.58925 -7.833731,0.25197 -23.501191,0.75592 -23.501191,0.75592 -0.101578,-2.05903 -0.304733,-6.17708 -0.304733,-6.17708 0,0 15.634917,-0.4714 23.452375,-0.7071 0,0 -0.628539,-4.32121 -0.942809,-6.48181 -0.432129,-1.96423 -0.864241,-3.92837 -1.296362,-5.89256 -0.510699,-1.80709 -1.021377,-3.6141 -1.532065,-5.42115 -0.549983,-1.49281 -1.099944,-2.98556 -1.649916,-4.47834 -0.510698,-1.37496 -1.021376,-2.74986 -1.532064,-4.12479 -0.667837,-1.33568 -1.335647,-2.6713 -2.00347,-4.00694 -1.453526,-2.16065 -2.906994,-4.32121 -4.360491,-6.48181 -1.532096,-1.92494 -3.06413,-3.84981 -4.596195,-5.77471 -1.099965,-1.296387 -2.199887,-2.592724 -3.299831,-3.889086 -1.21782,-1.21782 -2.43559,-2.43559 -3.653385,-3.653385 -0.589268,-0.549983 -1.767767,-1.649916 -1.767767,-1.649916 0,0 -0.3074,-0.694489 -0.461099,-1.041733 z"
       sodipodi:nodetypes="ccccccccccscccccccccccccccccccccccccccccccccccc"
       inkscape:label="roof edg Left"
       transform="matrix(-1,0,0,1,307.15934,0)" />
    <path
       style="fill:none"
       d="M 23.333333,88.666667 C 30,88.888889 36.666667,89.111111 41.611144,89.277779 c 4.944476,0.166668 8.166634,0.277777 10.777765,0.444446 2.611131,0.166668 4.611091,0.388886 6.143645,0.712114 1.532555,0.323227 2.597621,0.747443 3.662708,1.171668 0.379357,5.797998 0.758714,11.596003 1.226176,17.495053 0.467462,5.89906 1.023006,11.89894 1.457633,17.44472 0.434627,5.54579 0.748305,10.63705 0.932932,14.05211 0.184627,3.41505 0.24018,5.1535 0.295734,6.892 -2.397025,-0.12064 -4.794001,-0.24128 -11.867656,-0.43404 -7.073655,-0.19276 -18.823418,-0.45762 -30.573418,-0.72249 z"
       id="path13"
       sodipodi:nodetypes="cccccccccccc"
       inkscape:label="front left door"
       inkscape:original-d="m 23.333333,88.666667 c 0,0 13.333334,0.444444 20,0.666666 3.222287,0.111114 6.444445,0.222223 9.666667,0.333334 2.00004,0.222226 4,0.444444 6,0.666666 1.065109,0.424233 3.195262,1.272674 3.195262,1.272674 0,0 0.758714,11.596003 1.138071,17.393993 0.555567,6.00012 1.111111,12 1.666667,18 0.313698,5.09157 0.627376,10.18283 0.941074,15.2744 0.05556,1.73854 0.166663,5.21549 0.166663,5.21549 0,0 -4.794001,-0.24128 -7.191074,-0.36193 -11.750237,-0.26487 -35.25,-0.7946 -35.25,-0.7946 z"
       inkscape:path-effect="#path-effect22"
       transform="matrix(-1,0,0,1,307.15934,0)" />
    <path
       style="fill:none"
       d="m 23.666667,146.66667 c 12,0.27778 24,0.55555 30.380762,0.70258 6.380763,0.14702 7.142235,0.16328 8.062289,0.19919 0.920055,0.0359 1.998553,0.0915 2.69303,0.13552 0.694477,0.0441 1.004781,0.0766 1.315103,0.10919 0.303581,4.35298 0.607157,8.70587 1.031967,12.87599 0.424811,4.17011 0.970825,8.15713 1.493842,12.42851 0.523017,4.27137 1.023007,8.82683 1.495233,12.99354 0.472227,4.1667 0.916663,7.94441 1.361112,11.1111 0.444449,3.16669 0.888884,5.72219 1.333328,8.27775 -1.277778,0.94444 -2.555557,1.88889 -3.694459,2.13887 -1.138903,0.24999 -2.13888,-0.19446 -9.666796,-5.33345 C 51.944163,197.16647 37.888889,187.33333 23.833333,177.5 Z"
       id="path14"
       inkscape:path-effect="#path-effect24"
       inkscape:original-d="m 23.666667,146.66667 c 0,0 24,0.55555 36,0.83333 0.761524,0.0163 1.522998,0.0325 2.284517,0.0488 1.078586,0.0556 2.157087,0.1111 3.235702,0.16665 0.310336,0.0326 0.930965,0.0977 0.930965,0.0977 0,0 0.607157,8.70587 0.910744,13.05893 0.546035,3.98717 1.092048,7.97419 1.638072,11.96129 0.50001,4.55565 1,9.11111 1.5,13.66667 0.444453,3.77785 0.888889,7.55556 1.333333,11.33333 0.444453,2.55561 1.333333,7.66667 1.333333,7.66667 0,0 -2.555555,1.88889 -3.833333,2.83333 C 67.99998,207.88888 67,207.44444 66,207 51.944163,197.16647 23.833333,177.5 23.833333,177.5 Z"
       sodipodi:nodetypes="cccccccccccccc"
       inkscape:label="rear left door"
       transform="matrix(-1,0,0,1,307.15934,0)" />
    <path
       style="fill:none"
       d="m 23.688077,177.60166 c 0,4.67476 0,9.34952 0,14.02428 1.06066,0.35355 2.121319,0.70711 3.162347,1.2178 1.041028,0.51069 2.062384,1.1785 3.005202,1.88562 0.942818,0.70711 1.807044,1.45349 2.592725,2.31774 0.78568,0.86425 1.492771,1.84632 2.160602,2.907 0.667831,1.06067 1.296356,2.19987 1.80705,3.31947 0.510694,1.1196 0.903523,2.21952 1.257079,3.41768 0.353556,1.19817 0.66782,2.49451 0.766028,3.88909 0.09821,1.39459 -0.01964,2.88734 -0.235705,4.24264 -0.216064,1.3553 -0.530327,2.57307 -0.903526,3.71231 -0.3732,1.13924 -0.805312,2.19988 -1.355291,3.26055 -0.549978,1.06067 -1.217788,2.12131 -2.00347,3.02484 -0.785682,0.90353 -1.689192,1.64991 -2.749865,2.41595 -1.060672,0.76604 -2.278444,1.5517 -3.476608,2.19988 -1.198164,0.64819 -2.376652,1.15887 -3.496248,1.61064 -1.119595,0.45176 -2.180235,0.84459 -3.221264,1.06065 -1.04103,0.21606 -2.062386,0.25535 -2.396294,1.2571 -0.333908,1.00175 0.01964,2.9659 0.31427,4.51762 0.29463,1.55172 0.530327,2.69092 0.824958,3.9873 0.294631,1.29637 0.648178,2.74984 1.060663,4.41942 0.412484,1.66958 0.883879,3.55516 1.37493,5.49972 0.491051,1.94456 1.001729,3.94799 1.374926,5.55864 0.373198,1.61064 0.608895,2.82841 0.8446,3.53552 0.235705,0.70711 0.471401,0.90352 0.982099,0.96245 0.510699,0.0589 1.296354,-0.0196 3.201644,-0.15714 1.905291,-0.13749 4.930076,-0.33391 7.935309,-0.53033 3.005234,-0.19642 5.990736,-0.39283 8.760263,-0.6089 2.769528,-0.21606 5.322918,-0.45176 7.679962,-0.66782 2.357044,-0.21606 4.517605,-0.41247 6.894295,-0.58925 2.376691,-0.17678 4.969364,-0.33391 6.619287,-0.62855 1.649923,-0.29463 2.357015,-0.72674 2.887349,-1.49278 0.530335,-0.76605 0.883881,-1.86597 1.139226,-3.31948 0.255345,-1.45352 0.412477,-3.26053 0.569613,-5.10689 0.157137,-1.84635 0.314268,-3.73193 0.549973,-5.38186 0.235706,-1.64993 0.54997,-3.06412 0.942812,-4.28192 0.392842,-1.21781 0.864235,-2.23916 1.492782,-3.81053 0.628548,-1.57137 1.414207,-3.69265 2.121319,-5.51936 0.707113,-1.8267 1.335642,-3.35874 2.062399,-5.14617 0.726758,-1.78743 1.551698,-3.83014 2.396307,-6.01041 0.844608,-2.18027 1.708831,-4.49796 2.47487,-6.30502 0.76604,-1.80707 1.433846,-3.1034 2.023108,-4.24264 0.589261,-1.13924 1.099941,-2.12132 1.610629,-3.10341 -1.807049,-2.04275 -3.614103,-4.08551 -5.421152,-6.12826 -1.37493,1.29636 -2.749862,2.59273 -3.869456,3.61411 -1.119594,1.02139 -1.98382,1.76777 -3.103418,2.57309 -1.119597,0.80533 -2.4945,1.66955 -3.476599,2.21952 -0.9821,0.54998 -1.57134,0.78568 -1.96418,0.90353 -0.39284,0.11785 -0.589251,0.11785 -1.139233,-0.0982 -0.549982,-0.21606 -1.453486,-0.64817 -8.858609,-5.75516 C 51.500662,197.16474 37.59451,187.3833 23.688077,177.60166 Z"
       id="path16"
       inkscape:path-effect="#path-effect28"
       inkscape:original-d="m 23.688077,177.60166 c 0,0 0,9.34952 0,14.02428 0,0 2.121321,0.7071 3.181981,1.06066 1.021397,0.66783 2.042753,1.33564 3.064129,2.00347 0.864259,0.7464 1.728483,1.49278 2.592725,2.23917 0.707121,0.98211 1.414214,1.96418 2.12132,2.94628 0.628552,1.13925 1.257079,2.27845 1.885618,3.41768 0.392845,1.09997 0.785675,2.19989 1.178512,3.29983 0.314276,1.29639 0.628539,2.59273 0.942809,3.88909 -0.117854,1.49281 -0.235703,2.98556 -0.353554,4.47834 -0.314276,1.21782 -0.628539,2.43559 -0.942809,3.65339 -0.432129,1.06068 -0.864241,2.12132 -1.296362,3.18198 -0.667837,1.06068 -1.335646,2.12132 -2.003469,3.18198 -0.903544,0.7464 -1.807051,1.49278 -2.710576,2.23917 -1.21782,0.78569 -2.43559,1.57135 -3.653385,2.35702 -1.178535,0.5107 -2.357023,1.02138 -3.535534,1.53207 -1.060682,0.39284 -2.121321,0.78567 -3.181981,1.17851 -1.021397,0.0393 -2.042753,0.0786 -3.064129,0.11785 0.35356,1.96422 0.707107,3.92837 1.06066,5.89256 0.235707,1.13925 0.471404,2.27845 0.707107,3.41768 0.35356,1.45352 0.707107,2.90699 1.06066,4.36049 0.471414,1.88566 0.942809,3.77124 1.414213,5.65685 0.510699,2.00351 1.021377,4.00694 1.532065,6.01041 0.235707,1.21782 0.471405,2.43559 0.707107,3.65339 0.235707,0.19642 0.471404,0.39283 0.707107,0.58925 0.78569,-0.0786 1.571348,-0.15713 2.357022,-0.2357 3.024907,-0.19642 6.049692,-0.39284 9.074537,-0.58926 2.985622,-0.19642 5.971124,-0.39283 8.956686,-0.58925 2.553493,-0.23571 5.106883,-0.47141 7.660324,-0.70711 2.160647,-0.19642 4.321208,-0.39283 6.481812,-0.58925 2.592777,-0.15714 5.18545,-0.31427 7.778175,-0.47141 0.70712,-0.43213 1.414213,-0.86424 2.12132,-1.29636 0.35356,-1.09997 0.707107,-2.19989 1.06066,-3.29983 0.157138,-1.80709 0.31427,-3.6141 0.471405,-5.42115 0.157138,-1.88566 0.314269,-3.77124 0.471404,-5.65686 0.314276,-1.41424 0.628539,-2.82843 0.942809,-4.24264 0.471414,-1.0214 0.942809,-2.04275 1.414214,-3.06413 0.78569,-2.12136 1.571348,-4.24264 2.357022,-6.36396 0.628552,-1.53209 1.257079,-3.06413 1.885618,-4.59619 0.824975,-2.0428 1.649916,-4.08551 2.474874,-6.12826 0.864259,-2.31779 1.728483,-4.63548 2.592725,-6.95322 0.667836,-1.29639 1.335646,-2.59272 2.003469,-3.88909 0.510698,-0.98211 1.532065,-2.94628 1.532065,-2.94628 -1.807051,-2.04275 -3.614101,-4.08551 -5.421152,-6.12826 0,0 -2.74986,2.59273 -4.12479,3.88909 -0.864259,0.74641 -1.728485,1.49279 -2.592725,2.23918 -1.374954,0.86426 -2.749859,1.72848 -4.124789,2.59272 -0.589268,0.23571 -1.178511,0.4714 -1.767767,0.70711 -0.196422,0 -0.392833,0 -0.589256,0 -0.903542,-0.43213 -1.807047,-0.86424 -2.710576,-1.29637 -13.906713,-9.78184 -41.7193,-29.34492 -41.7193,-29.34492 z"
       sodipodi:nodetypes="ccccccccccccccccccccccccccccccccccccccccccccccccccc"
       inkscape:label="rear left fender"
       transform="matrix(-1,0,0,1,307.15934,0)" />
    <path
       style="fill:none"
       d="m 61.891484,190.68313 c -0.176775,0.74639 -0.09821,2.19989 0.157141,2.92663 0.255348,0.72675 0.68746,0.72675 0.864236,-0.0197 0.176776,-0.7464 0.09821,-2.23915 -0.157139,-2.9659 -0.255349,-0.72675 -0.687462,-0.68746 -0.864238,0.0589 z"
       id="path10-7"
       transform="matrix(1.8250463,0,0,2.3162983,-50.780828,-252.32965)"
       sodipodi:nodetypes="ccccc"
       inkscape:original-d="m 61.636141,189.97602 c 0.07857,1.4535 0.157135,2.907 0.235702,4.36049 0.43213,0 0.864242,0 1.296363,0 -0.07857,-1.49281 -0.157135,-2.98556 -0.235702,-4.47834 -0.43213,0.0393 -0.864241,0.0786 -1.296363,0.11785 z"
       inkscape:path-effect="#path-effect10-6" />
    <path
       style="fill:none"
       d="m 61.891484,190.68313 c -0.176775,0.74639 -0.09821,2.19989 0.157141,2.92663 0.255348,0.72675 0.68746,0.72675 0.864236,-0.0197 0.176776,-0.7464 0.09821,-2.23915 -0.157139,-2.9659 -0.255349,-0.72675 -0.687462,-0.68746 -0.864238,0.0589 z"
       id="path10-79"
       transform="matrix(1.8250463,0,0,2.3162983,136.21917,-307.32965)"
       sodipodi:nodetypes="ccccc"
       inkscape:original-d="m 61.636141,189.97602 c 0.07857,1.4535 0.157135,2.907 0.235702,4.36049 0.43213,0 0.864242,0 1.296363,0 -0.07857,-1.49281 -0.157135,-2.98556 -0.235702,-4.47834 -0.43213,0.0393 -0.864241,0.0786 -1.296363,0.11785 z"
       inkscape:path-effect="#path-effect10-8" />
    <path
       style="fill:none"
       d="m 61.891484,190.68313 c -0.176775,0.74639 -0.09821,2.19989 0.157141,2.92663 0.255348,0.72675 0.68746,0.72675 0.864236,-0.0197 0.176776,-0.7464 0.09821,-2.23915 -0.157139,-2.9659 -0.255349,-0.72675 -0.687462,-0.68746 -0.864238,0.0589 z"
       id="path10-3"
       transform="matrix(1.8250463,0,0,2.3162983,134.21917,-250.32965)"
       sodipodi:nodetypes="ccccc"
       inkscape:original-d="m 61.636141,189.97602 c 0.07857,1.4535 0.157135,2.907 0.235702,4.36049 0.43213,0 0.864242,0 1.296363,0 -0.07857,-1.49281 -0.157135,-2.98556 -0.235702,-4.47834 -0.43213,0.0393 -0.864241,0.0786 -1.296363,0.11785 z"
       inkscape:path-effect="#path-effect10-3" />
    <g
       id="g36"
       style="fill:none">
      <circle
         style="fill:none"
         id="path33"
         cx="18.764299"
         cy="58.90237"
         r="17" />
      <ellipse
         style="fill:none"
         id="path34"
         cx="18.764299"
         cy="59.442814"
         rx="10.695263"
         ry="10.833333" />
      <ellipse
         style="fill:none"
         id="path35"
         cx="18.764299"
         cy="64.58242"
         rx="0.82495791"
         ry="0.94280905" />
    </g>
    <g
       id="g37"
       transform="translate(-0.77965,152.20507)"
       style="fill:none">
      <circle
         style="fill:none"
         id="circle36"
         cx="18.764299"
         cy="58.90237"
         r="17" />
      <ellipse
         style="fill:none"
         id="ellipse36"
         cx="18.764299"
         cy="59.442814"
         rx="10.695263"
         ry="10.833333" />
      <ellipse
         style="fill:none"
         id="ellipse37"
         cx="18.764299"
         cy="64.58242"
         rx="0.82495791"
         ry="0.94280905" />
    </g>
    <g
       id="g39"
       transform="translate(269.55368,-0.12826333)"
       style="fill:none">
      <circle
         style="fill:none"
         id="circle37"
         cx="18.764299"
         cy="58.90237"
         r="17" />
      <ellipse
         style="fill:none"
         id="ellipse38"
         cx="18.764299"
         cy="59.442814"
         rx="10.695263"
         ry="10.833333" />
      <ellipse
         style="fill:none"
         id="ellipse39"
         cx="18.764299"
         cy="64.58242"
         rx="0.82495791"
         ry="0.94280905" />
    </g>
    <g
       id="g41"
       transform="translate(269.55368,-0.12826333)"
       style="fill:none">
      <circle
         style="fill:none"
         id="circle39"
         cx="18.764299"
         cy="58.90237"
         r="17" />
      <ellipse
         style="fill:none"
         id="ellipse40"
         cx="18.764299"
         cy="59.442814"
         rx="10.695263"
         ry="10.833333" />
      <ellipse
         style="fill:none"
         id="ellipse41"
         cx="18.764299"
         cy="64.58242"
         rx="0.82495791"
         ry="0.94280905" />
    </g>
    <g
       id="g43"
       transform="translate(269.66667,153)"
       style="fill:none">
      <circle
         style="fill:none"
         id="circle41"
         cx="18.764299"
         cy="58.90237"
         r="17" />
      <ellipse
         style="fill:none"
         id="ellipse42"
         cx="18.764299"
         cy="59.442814"
         rx="10.695263"
         ry="10.833333" />
      <ellipse
         style="fill:none"
         id="ellipse43"
         cx="18.764299"
         cy="64.58242"
         rx="0.82495791"
         ry="0.94280905" />
    </g>
    <path
       style="fill:none"
       d="m 13,79 c -0.333333,0.888889 -0.666667,1.777778 -0.777777,20.222584 -0.111109,18.444806 0,54.444086 0.111111,90.444086 2,0.44444 4.000002,0.88889 5.722237,1.16666 1.722236,0.27778 3.166651,0.38889 4.611096,0.5 0,0 -1,-113.33333 -1,-113.33333 z"
       id="path43"
       inkscape:path-effect="#path-effect43"
       inkscape:original-d="m 13,79 c 0,0 -0.666667,1.777778 -1,2.666667 0.111113,36.000723 0.333334,108.000003 0.333334,108.000003 0,0 4.000001,0.88889 5.999999,1.33333 1.444474,0.11111 4.333334,0.33333 4.333334,0.33333 L 21.666667,78 Z"
       sodipodi:nodetypes="ccccccc" />
    <path
       style="fill:none"
       d="m -259,79 c -0.33333,0.888889 -0.66666,1.77776 -0.77777,20.222575 -0.11112,18.444815 -1e-5,54.444095 0.1111,90.444095 2,0.44444 3.99995,0.88888 5.72222,1.16666 1.72226,0.27778 3.16667,0.38889 4.61112,0.5 0,0 -1,-113.33333 -1,-113.33333 z"
       id="path44"
       inkscape:path-effect="#path-effect45"
       inkscape:original-d="m -259,79 c 0,0 -0.66666,1.77776 -1,2.666667 0.11111,36.000723 0.33333,108.000003 0.33333,108.000003 0,0 3.99995,0.88888 6,1.33333 1.44448,0.11111 4.33334,0.33333 4.33334,0.33333 l -1,-113.33333 z"
       sodipodi:nodetypes="ccccccc"
       transform="matrix(-1,0,0,1,34.842867,0)" />
    <path
       style="fill:none"
       d="m 102.94444,95.833334 c -1.72222,-0.722223 -4.83333,1.722221 -6.722225,3 -1.888895,1.277776 -2.555548,1.388886 -2.888882,1.055546 C 93,99.55554 93,98.777778 93,97.999992 c 0,-0.777785 0,-1.555548 -0.277783,-2.500004 -0.277784,-0.944455 -0.833328,-2.055544 -1.055549,-2.833326 -0.222221,-0.777782 -0.111112,-1.222218 0.944463,-2.666687 1.055576,-1.444468 3.055536,-3.888864 4.388876,-5.333313 1.33334,-1.444449 1.999993,-1.888884 3.000003,-1.944436 1.00002,-0.05555 2.33332,0.277772 3.22222,0.666666 0.88889,0.388894 1.33333,0.83333 1.77777,1.277775 2.33333,-1.111111 4.66667,-2.222224 6.3889,-3.111119 1.72223,-0.888894 2.83332,-1.555548 3.94443,-2.222215 0.22222,3.888889 0.44445,7.777778 0.61111,10.277789 0.16667,2.500011 0.27778,3.6111 1.23514,8.117919 0.95737,4.506819 2.76091,12.409029 4.56449,20.311399 -0.94723,0.54208 -1.89447,1.08415 -2.36808,1.35519 C 118.90237,119.66667 115,98 115,98 c -0.33333,6.88889 -0.66667,13.77778 -0.72222,19.77783 -0.0556,6.00005 0.16667,11.11106 0.27778,16.77779 0.11111,5.66673 0.11111,11.88882 0.44445,19.94448 0.33334,8.05565 0.99999,17.94434 1.33333,23.55546 0.33333,5.61113 0.33333,6.94444 -0.11112,7.44443 -0.44446,0.5 -1.33333,0.16667 -1.94444,0.94447 -0.61112,0.7778 -0.94445,2.66665 -0.88889,4.38889 0.0556,1.72224 0.5,3.27776 1.11112,4.1111 0.61112,0.83333 1.38888,0.94444 1.72221,-0.77782 0.33333,-1.72226 0.22222,-5.27774 0.38889,-3.22211 0.16668,2.05563 0.61111,9.72215 1.7778,12.99992 1.16668,3.27776 3.05553,2.16667 4.94442,1.05556 -0.77778,7.88889 -1.55555,15.77778 -2.33333,23.66667 -4.32659,4.30753 -8.65319,8.61506 -12.97978,12.92259 -0.45118,-2.52975 -0.90237,-5.05951 -1.23907,-7.54663 -0.33671,-2.48712 -0.55893,-4.93152 -0.78115,-7.70933 -0.22223,-2.77781 -0.44445,-5.88886 -0.61111,-8.94444 -0.16667,-3.05559 -0.27778,-6.05553 -0.11111,-7.94442 0.16667,-1.8889 0.61111,-2.66666 1.44445,-3.94446 0.83335,-1.27779 2.05555,-3.05554 2.6111,-4.72222 0.55556,-1.66668 0.44445,-3.2222 0.44445,-15.83355 0,-12.61135 0.11111,-36.27754 0.11111,-48.66644 0,-12.3889 -0.11111,-13.49999 -0.38889,-14.61112 -0.27779,-1.11112 -0.72222,-2.22221 -1.3889,-3.61111 -0.66667,-1.38891 -1.55554,-3.05554 -2.05554,-5.3889 -0.50001,-2.33337 -0.61112,-5.33331 -0.83334,-8.77779 -0.22223,-3.44448 -0.55556,-7.333293 -2.27778,-8.055516 z"
       id="path45"
       inkscape:path-effect="#path-effect46"
       inkscape:original-d="M 104.33333,92.666667 C 101.22222,95.111111 98.111111,97.555556 95,100 c -0.66668,0.11111 -1.333333,0.22222 -2,0.33333 C 93,99.55554 93,98.777778 93,98 93,97.222207 93,96.444444 93,95.666667 92.444433,94.555533 91.888889,93.444444 91.333333,92.333333 91.444447,91.88888 91.555556,91.444444 91.666667,91 c 2.00004,-2.444493 4,-4.888889 6,-7.333333 0.66668,-0.444454 1.333333,-0.888889 2,-1.333334 1.333363,0.33334 2.666663,0.666667 4.000003,1 0.44445,0.444454 1.33333,1.333334 1.33333,1.333334 0,0 4.66667,-2.222223 7,-3.333334 1.11113,-0.66668 3.33333,-2 3.33333,-2 0,0 0.44445,7.777778 0.66667,11.666667 0.11111,1.111133 0.22222,2.222222 0.33333,3.333333 1.80362,7.902527 5.41074,23.707107 5.41074,23.707107 -0.94723,0.54208 -1.89447,1.08415 -2.8417,1.62623 L 115,98 c 0,0 -0.66667,13.77778 -1,20.66667 0.22223,5.11121 0.44444,10.22222 0.66667,15.33333 0,6.22235 0,12.44444 0,18.66667 0.66668,9.88908 1.33333,19.77777 2,29.66666 0,1.33336 0,2.66667 0,4 -0.88891,-0.33334 -1.77778,-0.66666 -2.66667,-1 -0.33334,1.88893 -0.66667,3.77778 -1,5.66667 0.44445,1.55559 0.88889,3.11111 1.33333,4.66667 0.7778,0.11111 1.55556,0.22222 2.33334,0.33333 -0.11112,-3.55563 -0.22223,-7.11111 -0.33334,-10.66667 0.44446,7.66682 0.88889,15.33334 1.33334,23 C 119.55559,207.2222 123.33333,205 123.33333,205 122.55555,212.88889 121,228.66667 121,228.66667 c 0,0 -8.65319,8.61506 -12.97978,12.92259 0,0 -0.90237,-5.05951 -1.35355,-7.58926 -0.22223,-2.44449 -0.44445,-4.88889 -0.66667,-7.33333 -0.22223,-3.11118 -0.44444,-6.22223 -0.66667,-9.33334 -0.11111,-3.00006 -0.22222,-6 -0.33333,-9 0.44445,-0.77779 0.88889,-1.55555 1.33333,-2.33333 1.22225,-1.77781 2.44445,-3.55556 3.66667,-5.33333 -0.11111,-1.55559 -0.22222,-3.11111 -0.33333,-4.66667 0.11111,-23.66714 0.22222,-47.33333 0.33333,-71 -0.11111,-1.11113 -0.22222,-2.22222 -0.33333,-3.33333 -0.44446,-1.11114 -0.88889,-2.22223 -1.33334,-3.33334 -0.8889,-1.6667 -1.77777,-3.33333 -2.66666,-5 -0.11112,-3.00006 -0.22223,-6 -0.33334,-9 -0.33334,-3.88896 -0.66666,-7.777774 -1,-11.666663 z"
       sodipodi:nodetypes="cccsccccccccccccccccccccccccccccccccccccccccc" />
    <path
       style="fill:none"
       d="M 10.944442,95.833333 C 9.2222203,95.111111 6.1111706,97.555508 4.2222457,98.83331 2.3333207,100.11111 1.6666778,100.22222 1.3333389,99.888879 1,99.55554 1,98.777792 1,98 1,97.222207 1,96.444461 0.7222165,95.499997 0.444433,94.555533 -0.11110047,93.444466 -0.33332698,92.666673 -0.5555535,91.88888 -0.4444465,91.444453 0.61113017,89.99998 1.6667069,88.555507 3.6666264,86.111161 4.9999869,84.666687 c 1.3333604,-1.444474 1.9999993,-1.8889 3.0000211,-1.944457 1.0000218,-0.05556 2.333304,0.277764 3.104355,0.568449 0.771052,0.290685 0.979789,0.538706 1.18853,0.786732 2.215482,-1.150395 4.430923,-2.300768 6.251388,-3.209316 1.820465,-0.908548 3.245818,-1.575202 4.671198,-2.241869 0.261507,4.124591 0.523009,8.249102 0.709321,10.867005 0.186312,2.617902 0.297418,3.728969 1.274424,8.353652 0.977007,4.624687 2.819833,12.762597 4.662697,20.900667 -0.986517,0.30637 -1.973034,0.61275 -2.959551,0.91912 -1.30079,-7.22222 -2.601581,-14.44445 -3.418642,-14.61111 -0.817061,-0.16667 -1.150388,6.72209 -1.205944,12.7222 -0.05556,6.00012 0.166658,11.11103 0.277772,16.77781 0.111114,5.66678 0.111114,11.88876 0.444454,19.94447 0.33334,8.05571 0.99998,17.94421 1.33332,23.55543 0.33334,5.61122 0.33334,6.9445 -0.111115,7.44451 -0.444455,0.50001 -1.333306,0.16669 -1.944431,0.94449 -0.611124,0.77779 -0.944444,2.6666 -0.888887,4.38886 0.05556,1.72226 0.499977,3.27774 1.111105,4.1111 0.611128,0.83335 1.388872,0.94446 1.722212,-0.7778 0.33334,-1.72226 0.222232,-5.27767 0.388902,-3.22207 0.16667,2.05559 0.6111,9.72197 1.777787,12.99981 1.166687,3.27783 3.05554,2.16674 4.944427,1.05563 -0.777777,7.88889 -1.555553,15.77778 -2.33333,23.66667 -4.326593,4.30753 -8.653187,8.61506 -12.97978,12.92259 -0.451183,-2.52975 -0.902358,-5.05946 -1.239068,-7.5466 -0.33671,-2.48715 -0.558924,-4.93149 -0.781152,-7.70933 -0.222228,-2.77784 -0.444442,-5.88882 -0.611112,-8.94444 -0.16667,-3.05562 -0.277778,-6.05556 -0.388888,-9.05556 0.444443,-0.77778 0.888879,-1.55554 1.722228,-2.83334 0.833348,-1.2778 2.055525,-3.05551 2.611092,-4.72221 0.555568,-1.6667 0.444462,-3.22219 0.444462,-15.83356 0,-12.61136 0.111106,-36.27713 0.111106,-48.66624 0,-12.38911 -0.111105,-13.50017 -0.38889,-14.61131 -0.277785,-1.11114 -0.722214,-2.22221 -1.388893,-3.61112 -0.666679,-1.38892 -1.555531,-3.05552 -2.055541,-5.3889 -0.50001,-2.33338 -0.611118,-5.33326 -0.833346,-8.77777 -0.222228,-3.44451 -0.555555,-7.333326 -2.277776,-8.055547 z"
       id="path46"
       inkscape:path-effect="#path-effect48"
       inkscape:original-d="M 12.33333,92.666667 C 9.2222202,95.111111 6.1111705,97.555508 3,100 2.3333204,100.11111 1.6666781,100.22222 1,100.33333 1,99.55554 1,98.777792 1,98 1,97.222207 1,96.444461 1,95.666667 0.444433,94.555533 -0.11110035,93.444466 -0.666667,92.333333 -0.55555347,91.88888 -0.44444655,91.444453 -0.333333,91 c 2.0000399,-2.444493 3.9999594,-4.888839 6,-7.333333 0.6666802,-0.444454 1.3333191,-0.88888 2,-1.333334 1.3333629,0.33334 2.666645,0.666661 4.000003,1 0.208745,0.248031 0.626223,0.744078 0.626223,0.744078 0,0 4.430923,-2.300768 6.646447,-3.451185 1.425406,-0.666679 4.276139,-2 4.276139,-2 0,0 0.523009,8.249102 0.784521,12.373774 0.111112,1.111133 0.222218,2.2222 0.33333,3.333333 1.842901,8.138237 5.528591,24.414217 5.528591,24.414217 0,0 -1.973034,0.61275 -2.959551,0.91912 0,0 -2.60158,-14.44445 -3.90237,-21.66667 -0.333333,6.88889 -0.66666,13.77765 -1,20.66667 0.222228,5.11121 0.444442,10.22212 0.66667,15.33333 0,6.22235 0,12.44433 0,18.66667 0.66668,9.88908 1.33332,19.77758 2,29.66666 0,1.33336 0,2.66664 0,4 -0.88891,-0.33334 -1.777761,-0.66666 -2.66667,-1 -0.33334,1.88893 -0.66666,3.77774 -1,5.66667 0.444453,1.55559 0.888875,3.11107 1.33333,4.66667 0.7778,0.11111 1.555544,0.22222 2.33334,0.33333 -0.111116,-3.55563 -0.222224,-7.11104 -0.33334,-10.66667 0.444456,7.66682 0.888885,15.3332 1.33334,23 C 27.55559,207.2222 31.33333,205 31.33333,205 30.555553,212.88889 29,228.66667 29,228.66667 c 0,0 -8.653187,8.61506 -12.97978,12.92259 0,0 -0.902358,-5.05946 -1.35355,-7.58926 -0.222228,-2.44449 -0.444442,-4.88883 -0.66667,-7.33333 -0.222228,-3.11118 -0.444442,-6.22216 -0.66667,-9.33334 -0.111112,-3.00006 -0.33333,-9 -0.33333,-9 0,0 0.888878,-1.55554 1.33333,-2.33333 C 15.555577,204.22219 16.777751,202.44448 18,200.66667 17.888888,199.11108 17.777782,197.55559 17.66667,196 17.777782,172.33286 17.888888,148.66709 18,125 c -0.111112,-1.11113 -0.222217,-2.22219 -0.33333,-3.33333 -0.444458,-1.11114 -0.888885,-2.22221 -1.33334,-3.33334 -0.888903,-1.6667 -1.777756,-3.3333 -2.66666,-5 -0.111116,-3.00006 -0.222225,-5.99994 -0.33334,-9 -0.33334,-3.88896 -0.666667,-7.777776 -1,-11.666663 z"
       sodipodi:nodetypes="cccsccccccccccccccccccccccccccccccccccccccccc"
       transform="matrix(-1,0,0,1,214.90492,0)" />
  </g>
  <ellipse
     style="fill:none"
     id="path30"
     cx="290"
     cy="58.333332"
     rx="8"
     ry="7.3333335" />
</svg>
