<?xml version="1.0" encoding="UTF-8" standalone="no"?>
<!-- Created with Inkscape (http://www.inkscape.org/) -->

<svg
   version="1.1"
   id="svg1"
   width="308"
   height="269"
   viewBox="0 0 308 269"
   xmlns="http://www.w3.org/2000/svg"
   xmlns:svg="http://www.w3.org/2000/svg">
  <defs
     id="defs1" />
  <g
     id="layer_body">
    <path
       style="display:inline;fill:none;stroke:#686868;stroke-width:0.997003;stroke-dasharray:none;stroke-opacity:1"
       d="m 105.44445,77.111111 c 0.0278,-6.722222 0.0833,-20.166666 0.25,-27.291675 0.16667,-7.125009 0.44444,-7.930547 0.72222,-8.777778 0.27778,-0.84723 0.55555,-1.736101 0.88889,-2.638889 0.33334,-0.902788 0.72222,-1.819436 1.11111,-2.56944 0.38889,-0.750005 0.77777,-1.333327 1.09722,-1.847223 0.31945,-0.513895 0.56944,-0.958328 0.875,-1.472223 0.30556,-0.513895 0.66667,-1.097218 1.08334,-1.652778 0.41667,-0.55556 0.88888,-1.083327 1.37499,-1.638889 0.48612,-0.555561 0.98611,-1.138883 1.52778,-1.708334 0.54168,-0.569451 1.125,-1.124995 1.86112,-1.791669 0.73612,-0.666674 1.62499,-1.444435 2.45833,-2.166664 0.83334,-0.722228 1.61111,-1.388885 2.48612,-2.055559 0.87501,-0.666673 1.84721,-1.333325 2.83333,-1.916662 C 125.00002,18.99999 126,18.5 126.97223,17.999995 c 0.97223,-0.500004 1.91666,-0.999996 3.13889,-1.569447 1.22224,-0.56945 2.72221,-1.208326 4.11111,-1.722219 1.38891,-0.513894 2.66666,-0.902773 3.98612,-1.249999 1.31946,-0.347225 2.68054,-0.652774 3.8611,-0.861109 1.18057,-0.208334 2.18055,-0.319443 3.55557,-0.444445 1.37502,-0.125001 3.12498,-0.263887 4.86111,-0.36111 1.73613,-0.09722 3.45831,-0.152777 4.97222,-0.152777 1.5139,10e-7 2.81943,0.05556 4.125,0.15278 1.30557,0.09722 2.61109,0.236109 4,0.444445 1.3889,0.208336 2.86109,0.486107 4.19444,0.791667 1.33335,0.30556 2.52777,0.638887 3.68056,0.972222 1.15278,0.333336 2.26387,0.666664 3.27777,1.02778 1.0139,0.361116 1.93055,0.749997 2.95834,1.263893 1.02779,0.513895 2.16665,1.152768 3.26388,1.805553 1.09724,0.652785 2.15277,1.319436 3.06945,1.902775 0.91667,0.583338 1.69443,1.083327 2.48611,1.638889 0.79167,0.555562 1.59721,1.166661 2.36111,1.791667 0.76389,0.625006 1.4861,1.263884 2.23611,2.013894 0.75001,0.75001 1.52777,1.611102 2.20833,2.430553 0.68056,0.819451 1.26388,1.597212 1.90278,2.472224 0.6389,0.875012 1.33333,1.847215 1.97222,2.888893 0.6389,1.041678 1.22222,2.152766 1.69444,3.013883 0.47223,0.861117 0.83333,1.472215 1.13889,2.125001 0.30556,0.652786 0.55555,1.347214 0.84722,2.13889 0.29167,0.791675 0.625,1.680547 0.90278,2.541666 0.27778,0.86112 0.5,1.694437 0.73611,8.527898 0.23612,6.833462 0.48609,19.665511 0.625,26.082692 0.13891,6.41718 0.16661,6.41718 -0.79173,5.847723 -0.95835,-0.569457 -2.90276,-1.708325 -4.43055,-2.541662 -1.52778,-0.833336 -2.63887,-1.361104 -3.66666,-1.763885 -1.02779,-0.402781 -1.97221,-0.680551 -2.95833,-0.98611 -0.98612,-0.305558 -2.01388,-0.638886 -3.22223,-1.000002 -1.20835,-0.361115 -2.59721,-0.749996 -4,-1.097221 -1.40279,-0.347224 -2.81943,-0.652774 -4.18056,-0.930555 -1.36112,-0.27778 -2.66665,-0.527776 -4.06944,-0.75 -1.40279,-0.222224 -2.90276,-0.416664 -4.58333,-0.597222 -1.68058,-0.180557 -3.54166,-0.347221 -5.58334,-0.444442 -2.04169,-0.09722 -4.26387,-0.124998 -6.15278,-0.124998 -1.8889,0 -3.44442,0.02778 -5.66668,0.04166 -2.22225,0.01389 -5.11108,0.01389 -7.54166,0.08333 -2.43057,0.06945 -4.40275,0.208332 -6.61111,0.375001 -2.20836,0.166669 -4.65275,0.361108 -6.95833,0.666668 -2.30558,0.30556 -4.4722,0.722218 -6.30555,1.069443 -1.83335,0.347226 -3.33332,0.624998 -4.61111,0.916667 -1.27778,0.291669 -2.33332,0.597221 -3.375,0.930557 -1.04167,0.333336 -2.06943,0.694441 -3.05555,1.097223 -0.98612,0.402781 -1.93055,0.847219 -2.90278,1.375002 -0.97223,0.527783 -1.97221,1.138882 -3.09722,1.833336 -1.12502,0.694453 -2.37418,1.471709 -3.01348,1.777462 -0.6393,0.305753 -0.66704,0.139203 -0.72258,0.125307 -0.0555,-0.0139 -0.13887,0.125 -0.18053,0.194444 -0.0417,0.06944 -0.0417,0.06944 -0.0139,-6.652778 z"
       id="hood" />
    <path
       style="fill:none;stroke:#686868;stroke-width:0.997003;stroke-dasharray:none;stroke-opacity:1"
       d="m 119.50105,120.28672 c 0.15713,-0.94281 1.02137,-1.57135 2.67131,-1.84634 1.64994,-0.27498 4.08548,-0.19642 14.77084,-0.19642 10.68536,0 29.61973,-0.0786 39.67637,0.19643 10.05664,0.27499 11.23513,0.90352 11.58868,1.76777 0.35355,0.86426 -0.11785,1.96418 -0.4714,3.18199 -0.35356,1.21781 -0.58926,2.55342 -1.02138,16.14585 -0.43213,13.59242 -1.06066,39.44058 -1.37493,52.32562 -0.31427,12.88504 -0.31427,12.80651 -0.31427,12.72794 -6.44253,-1.09994 -12.88505,-2.19989 -19.28836,-2.71057 -6.40331,-0.51069 -12.76714,-0.43213 -17.2848,-0.31427 -4.51765,0.11785 -7.18889,0.27498 -9.89949,0.54997 -2.71061,0.275 -5.46041,0.66782 -7.9353,1.09995 -2.4749,0.43212 -4.67475,0.90352 -6.0104,1.21779 -1.33565,0.31427 -1.80704,0.4714 -2.27845,0.62854 -0.2357,-25.37728 -0.4714,-50.75456 -0.78567,-64.30746 -0.31428,-13.55289 -0.7071,-15.28134 -1.17852,-16.77414 -0.47141,-1.49279 -1.02137,-2.74984 -0.86423,-3.69265 z"
       id="roof" />
    <path
       style="fill:none;stroke:#686868;stroke-width:0.997003;stroke-dasharray:none;stroke-opacity:1"
       d="m 107.71593,242.06622 c 1.76777,-1.61063 3.53551,-3.22123 5.12653,-4.71404 1.59102,-1.49281 3.00517,-2.86768 4.36049,-4.223 1.35531,-1.35532 2.65165,-2.69094 3.94801,-4.02659 2.51416,1.02138 5.02832,2.04276 7.0318,2.78916 2.00349,0.74639 3.49624,1.21779 5.06761,1.61063 1.57136,0.39284 3.22124,0.7071 5.34259,0.98209 2.12134,0.27499 4.71401,0.51069 7.69961,0.62854 2.9856,0.11785 6.36393,0.11785 9.42809,0.0786 3.06415,-0.0393 5.81396,-0.11785 8.36742,-0.27499 2.55347,-0.15713 4.91044,-0.39283 7.38534,-0.82496 2.4749,-0.43212 5.06757,-1.06065 7.58176,-1.88562 2.51418,-0.82497 4.94972,-1.84632 7.38531,-2.8677 1.88562,1.96419 3.77123,3.92837 5.814,6.12828 2.04278,2.19991 4.24263,4.63546 6.44252,7.07105 -0.47141,1.80705 -0.94281,3.6141 -1.64993,5.42117 -0.70712,1.80706 -1.64991,3.61408 -2.78915,5.14616 -1.13924,1.53207 -2.47486,2.78913 -4.04622,3.73195 -1.57137,0.94281 -3.37838,1.57133 -5.5783,2.08202 -2.19991,0.5107 -4.79259,0.90353 -7.54247,1.17852 -2.74989,0.27499 -5.65683,0.43212 -9.03527,0.62854 -3.37843,0.19642 -7.22816,0.43212 -11.15657,0.58925 -3.92841,0.15714 -7.93527,0.2357 -11.35298,0.15713 -3.41771,-0.0786 -6.24608,-0.31427 -9.23167,-0.62854 -2.9856,-0.31427 -6.12823,-0.7071 -8.52455,-1.06066 -2.39633,-0.35356 -4.04621,-0.66782 -5.85328,-1.13923 -1.80707,-0.47141 -3.77122,-1.09994 -5.18544,-1.88562 -1.41422,-0.78568 -2.27845,-1.72847 -3.1427,-2.98557 -0.86425,-1.25709 -1.72848,-2.82841 -2.47487,-4.36049 -0.7464,-1.53208 -1.37492,-3.02483 -1.9249,-4.24264 -0.54998,-1.2178 -1.02137,-2.16059 -1.49278,-3.1034 z"
       id="trunk" />
    <path
       style="fill:none;fill-opacity:1;stroke:#686868;stroke-width:0.997003;stroke-dasharray:none;stroke-opacity:1"
       d="m 29.388889,88.693627 c 5.833333,0.111111 17.05533,-0.02697 23.493164,0.52523 6.437834,0.552197 8.090987,1.32322 9.744174,2.094258 0.235702,-4.326594 0.471399,-8.653101 0.478139,-12.872038 0.0067,-4.218937 -0.215477,-8.329966 -0.437701,-12.163335 -0.222225,-3.833369 -0.444443,-7.388853 -0.833337,-10.666661 -0.388895,-3.277808 -0.944439,-6.277748 -1.5,-9.111108 C 59.777767,43.666613 59.222222,41 58.666661,38.666646 58.1111,36.333293 57.555556,34.333333 56.944438,32.499983 56.33332,30.666633 55.666667,29 54.777767,27.055534 c -0.8889,-1.944467 -1.999989,-4.166645 -2.999998,-5.88888 -1.000009,-1.722234 -1.88888,-2.944432 -2.944448,-4.11111 -1.055568,-1.166677 -2.277765,-2.277766 -3.888897,-2.777765 -1.611131,-0.499999 -3.611091,-0.38889 -5.166657,-0.722231 -1.555567,-0.333341 -2.666656,-1.111104 -6.888952,-1.333322 -4.222295,-0.222219 -11.555482,0.111108 -15.499932,0.555558 -3.94445,0.444449 -4.499994,0.999994 -4.722215,5.111181 -0.222221,4.111188 -0.111115,11.777548 -10e-7,15.610958 0.111113,3.83341 0.22222,3.83341 2.055589,4.055637 1.833369,0.222226 5.388783,0.666653 7.388823,0.88888 2.000041,0.222227 2.444476,0.222227 3.388935,0.66668 0.944459,0.444453 3.095982,0.979771 4.262657,1.979783 1.166676,1.000011 2.762654,1.757546 3.651552,2.813111 0.888898,1.055566 2.367024,2.762653 3.089252,3.929333 0.722227,1.16668 1.15992,2.853539 1.548812,4.020216 0.388891,1.166677 0.846811,2.520211 0.957922,3.409108 0.111111,0.888896 0.111111,1.784509 0.166668,2.840078 0.05556,1.055569 -0.186888,2.978132 -0.131332,4.200365 0.05556,1.222233 -0.533696,1.979768 -0.755928,3.09089 -0.222226,1.111123 -1.020215,2.575766 -1.575777,3.742445 -0.555562,1.166678 -1.457917,1.79962 -2.297998,2.619482 -0.72223,1.055565 -1.735696,1.826585 -2.680151,2.659926 -0.944456,0.833341 -2.055545,1.728955 -3.61112,2.284513 -1.555575,0.555559 -3.084131,0.771034 -5.08413,1.104368 0.111111,3.666667 -0.01348,8.51177 0.264301,10.289584 0.277783,1.777814 0.250812,0.488194 6.084147,0.599305 z"
       id="front_left_fender" />
    <path
       style="fill:none;stroke:#686868;stroke-width:0.997003;stroke-dasharray:none;stroke-opacity:1"
       d="m 62.755922,90.333333 c 0.04882,-0.666666 0.146447,-2 0.250819,-3.222233 0.104372,-1.222233 0.215481,-2.333322 0.264296,-3.356344 0.04882,-1.023022 0.03534,-1.957915 0.02186,-2.892828 2.235702,2.60158 4.471405,5.20316 6.644833,7.726196 2.173427,2.523036 4.284496,4.967432 5.951175,7.023004 1.666679,2.055572 2.888877,3.722205 3.999998,5.500002 1.111122,1.7778 2.111101,3.66665 3.018121,5.43417 0.907019,1.76752 1.721025,3.4136 2.560167,5.17949 0.839143,1.76589 1.703368,3.65147 2.449764,5.5371 0.746396,1.88564 1.374922,3.77122 2.082036,5.89257 0.707115,2.12134 1.492772,4.47831 2.082033,6.83536 0.58926,2.35705 0.982089,4.71402 1.296361,6.91393 0.314273,2.19991 0.54997,4.24262 0.74639,6.48181 0.19642,2.2392 0.353552,4.67474 0.43212,7.14964 0.07857,2.4749 0.07857,4.98901 0.03928,7.7389 -0.03928,2.74989 -0.11785,5.73539 -0.29463,8.50491 -0.176779,2.76953 -0.451759,5.32292 -0.785675,7.89603 -0.333915,2.57311 -0.726744,5.16578 -1.178512,7.56211 -0.451768,2.39633 -0.962448,4.59618 -1.55171,6.91394 -0.589262,2.31776 -1.257071,4.7533 -1.767763,6.77643 -0.510692,2.02313 -0.864238,3.63373 -1.25708,4.94974 -0.392841,1.31602 -0.824952,2.33737 -1.257073,3.35875 -1.532065,-1.6892 -3.064129,-3.3784 -4.596194,-5.0676 0.667823,-2.23917 1.335646,-4.47834 2.042761,-6.7961 0.707115,-2.31777 1.453491,-4.71403 2.082034,-7.07107 0.628544,-2.35705 1.139222,-4.67474 1.610631,-7.34606 0.471409,-2.67133 0.90352,-5.69611 1.296361,-9.17276 0.392841,-3.47665 0.746387,-7.40494 0.962449,-10.50838 0.216061,-3.10343 0.294627,-5.38184 0.314268,-6.61928 0.01964,-1.23744 -0.01964,-1.43385 -0.05893,-1.63027 -7.833731,0.25197 -15.667461,0.50395 -23.501191,0.75592 -0.101578,-2.05903 -0.203155,-4.11805 -0.304733,-6.17708 7.817458,-0.2357 15.634917,-0.4714 23.452375,-0.7071 -0.31427,-2.1606 -0.62854,-4.32121 -1.001739,-6.38362 -0.3732,-2.06242 -0.805311,-4.02656 -1.276721,-5.9122 -0.471411,-1.88564 -0.982088,-3.69265 -1.512423,-5.34258 -0.530336,-1.64993 -1.080297,-3.14268 -1.610633,-4.57655 -0.530335,-1.43387 -1.041012,-2.80877 -1.630276,-4.16407 -0.589263,-1.35531 -1.257073,-2.69093 -2.317748,-4.43907 -1.060674,-1.74815 -2.514142,-3.90871 -4.006937,-5.95148 -1.492795,-2.04277 -3.024832,-3.96764 -4.340846,-5.57828 -1.316014,-1.610647 -2.415936,-2.906984 -3.574818,-4.164075 -1.158882,-1.257091 -2.376652,-2.474861 -3.280183,-3.35875 -0.903532,-0.883889 -1.492775,-1.43385 -2.082031,-1.983822 -0.1537,-0.347244 -0.3074,-0.694489 -0.384249,-0.868111 C 62.707112,91 62.707107,91 62.755922,90.333333 Z"
       id="roof_edg_left" />
    <path
       style="fill:none;stroke:#686868;stroke-width:0.997003;stroke-dasharray:none;stroke-opacity:1"
       d="M 23.333333,88.666667 C 30,88.888889 36.666667,89.111111 41.611144,89.277779 c 4.944476,0.166668 8.166634,0.277777 10.777765,0.444446 2.611131,0.166668 4.611091,0.388886 6.143645,0.712114 1.532555,0.323227 2.597621,0.747443 3.662708,1.171668 0.379357,5.797998 0.758714,11.596003 1.226176,17.495053 0.467462,5.89906 1.023006,11.89894 1.457633,17.44472 0.434627,5.54579 0.748305,10.63705 0.932932,14.05211 0.184627,3.41505 0.24018,5.1535 0.295734,6.892 -2.397025,-0.12064 -4.794001,-0.24128 -11.867656,-0.43404 -7.073655,-0.19276 -18.823418,-0.45762 -30.573418,-0.72249 z"
       id="front_left_door" />
    <path
       style="fill:none;stroke:#686868;stroke-width:0.997003;stroke-dasharray:none;stroke-opacity:1"
       d="m 23.666667,146.66667 c 12,0.27778 24,0.55555 30.380762,0.70258 6.380763,0.14702 7.142235,0.16328 8.062289,0.19919 0.920055,0.0359 1.998553,0.0915 2.69303,0.13552 0.694477,0.0441 1.004781,0.0766 1.315103,0.10919 0.303581,4.35298 0.607157,8.70587 1.031967,12.87599 0.424811,4.17011 0.970825,8.15713 1.493842,12.42851 0.523017,4.27137 1.023007,8.82683 1.495233,12.99354 0.472227,4.1667 0.916663,7.94441 1.361112,11.1111 0.444449,3.16669 0.888884,5.72219 1.333328,8.27775 -1.277778,0.94444 -2.555557,1.88889 -3.694459,2.13887 -1.138903,0.24999 -2.13888,-0.19446 -9.666796,-5.33345 C 51.944163,197.16647 37.888889,187.33333 23.833333,177.5 Z"
       id="rear_left_door" />
    <path
       style="fill:none;stroke:#686868;stroke-width:0.997003;stroke-dasharray:none;stroke-opacity:1"
       d="m 23.688077,177.60166 c 0,4.67476 0,9.34952 0,14.02428 1.06066,0.35355 2.121319,0.70711 3.162347,1.2178 1.041028,0.51069 2.062384,1.1785 3.005202,1.88562 0.942818,0.70711 1.807044,1.45349 2.592725,2.31774 0.78568,0.86425 1.492771,1.84632 2.160602,2.907 0.667831,1.06067 1.296356,2.19987 1.80705,3.31947 0.510694,1.1196 0.903523,2.21952 1.257079,3.41768 0.353556,1.19817 0.66782,2.49451 0.766028,3.88909 0.09821,1.39459 -0.01964,2.88734 -0.235705,4.24264 -0.216064,1.3553 -0.530327,2.57307 -0.903526,3.71231 -0.3732,1.13924 -0.805312,2.19988 -1.355291,3.26055 -0.549978,1.06067 -1.217788,2.12131 -2.00347,3.02484 -0.785682,0.90353 -1.689192,1.64991 -2.749865,2.41595 -1.060672,0.76604 -2.278444,1.5517 -3.476608,2.19988 -1.198164,0.64819 -2.376652,1.15887 -3.496248,1.61064 -1.119595,0.45176 -2.180235,0.84459 -3.221264,1.06065 -1.04103,0.21606 -2.062386,0.25535 -2.396294,1.2571 -0.333908,1.00175 0.01964,2.9659 0.31427,4.51762 0.29463,1.55172 0.530327,2.69092 0.824958,3.9873 0.294631,1.29637 0.648178,2.74984 1.060663,4.41942 0.412484,1.66958 0.883879,3.55516 1.37493,5.49972 0.491051,1.94456 1.001729,3.94799 1.374926,5.55864 0.373198,1.61064 0.608895,2.82841 0.8446,3.53552 0.235705,0.70711 0.471401,0.90352 0.982099,0.96245 0.510699,0.0589 1.296354,-0.0196 3.201644,-0.15714 1.905291,-0.13749 4.930076,-0.33391 7.935309,-0.53033 3.005234,-0.19642 5.990736,-0.39283 8.760263,-0.6089 2.769528,-0.21606 5.322918,-0.45176 7.679962,-0.66782 2.357044,-0.21606 4.517605,-0.41247 6.894295,-0.58925 2.376691,-0.17678 4.969364,-0.33391 6.619287,-0.62855 1.649923,-0.29463 2.357015,-0.72674 2.887349,-1.49278 0.530335,-0.76605 0.883881,-1.86597 1.139226,-3.31948 0.255345,-1.45352 0.412477,-3.26053 0.569613,-5.10689 0.157137,-1.84635 0.314268,-3.73193 0.549973,-5.38186 0.235706,-1.64993 0.54997,-3.06412 0.942812,-4.28192 0.392842,-1.21781 0.864235,-2.23916 1.492782,-3.81053 0.628548,-1.57137 1.414207,-3.69265 2.121319,-5.51936 0.707113,-1.8267 1.335642,-3.35874 2.062399,-5.14617 0.726758,-1.78743 1.551698,-3.83014 2.396307,-6.01041 0.844608,-2.18027 1.708831,-4.49796 2.47487,-6.30502 0.76604,-1.80707 1.433846,-3.1034 2.023108,-4.24264 0.589261,-1.13924 1.099941,-2.12132 1.610629,-3.10341 -1.807049,-2.04275 -3.614103,-4.08551 -5.421152,-6.12826 -1.37493,1.29636 -2.749862,2.59273 -3.869456,3.61411 -1.119594,1.02139 -1.98382,1.76777 -3.103418,2.57309 -1.119597,0.80533 -2.4945,1.66955 -3.476599,2.21952 -0.9821,0.54998 -1.57134,0.78568 -1.96418,0.90353 -0.39284,0.11785 -0.589251,0.11785 -1.139233,-0.0982 -0.549982,-0.21606 -1.453486,-0.64817 -8.858608,-5.75516 -7.405122,-5.10698 -21.311275,-14.88842 -35.217709,-24.67006 z"
       id="rear_left_fender" />
    <path
       style="fill:none;stroke:#686868;stroke-width:2.04989;stroke-dasharray:none;stroke-opacity:1"
       d="m 58.141076,133.24879 c -0.322624,1.72886 -0.179234,5.0956 0.286789,6.77896 0.466022,1.68336 1.254647,1.68336 1.577271,-0.0455 0.322625,-1.7289 0.179239,-5.18655 -0.286786,-6.86991 -0.466024,-1.68337 -1.25465,-1.59238 -1.577274,0.13649 z"
       id="path10" />
    <path
       style="fill:none;stroke:#686868;stroke-width:0.997003;stroke-dasharray:none;stroke-opacity:1"
       d="m 29.388889,88.222222 c 5.833333,0.111111 17.05533,0.444438 23.493164,0.996635 6.437834,0.552197 8.090987,1.32322 9.744174,2.094258 0.235702,-4.326594 0.471399,-8.653101 0.478139,-12.872038 0.0067,-4.218937 -0.215477,-8.329966 -0.437701,-12.163335 -0.222225,-3.833369 -0.444443,-7.388853 -0.833337,-10.666661 -0.388895,-3.277808 -0.944439,-6.277748 -1.5,-9.111108 C 59.777767,43.666613 59.222222,41 58.666661,38.666646 58.1111,36.333293 57.555556,34.333333 56.944438,32.499983 56.33332,30.666633 55.666667,29 54.777767,27.055534 c -0.8889,-1.944467 -1.999989,-4.166645 -2.999998,-5.88888 -1.000009,-1.722234 -1.88888,-2.944432 -2.944448,-4.11111 -1.055568,-1.166677 -2.277765,-2.277766 -3.888897,-2.777765 -1.611131,-0.499999 -3.611091,-0.38889 -5.166657,-0.722231 -1.555567,-0.333341 -2.666656,-1.111104 -6.888952,-1.333322 -4.222295,-0.222219 -11.555482,0.111108 -15.499932,0.555558 -3.94445,0.444449 -4.499994,0.999994 -4.722215,5.111181 -0.222221,4.111188 -0.111115,11.777548 -10e-7,15.610958 0.111113,3.83341 0.22222,3.83341 2.055589,4.055637 1.833369,0.222226 4.472116,-0.16668 6.472156,0.05555 2.000041,0.222227 3.694476,0.888893 4.638935,1.333346 0.944459,0.444453 3.138875,1.749991 4.30555,2.750003 1.166676,1.000011 1.972215,1.777766 2.861113,2.833331 0.888898,1.055566 1.611102,1.63888 2.33333,2.80556 0.722227,1.16668 1.611103,2.749986 1.999995,3.916663 0.388891,1.166677 0.777776,2.083324 0.888887,2.972221 0.111111,0.888896 0.277778,2.249991 0.333335,3.30556 0.05556,1.055569 -0.08334,2.638877 -0.02778,3.86111 0.05556,1.222233 -0.44444,1.916654 -0.666672,3.027776 -0.222226,1.111123 -1.166663,2.555545 -1.722225,3.722224 -0.555562,1.166678 -1.472215,1.97221 -2.194445,3.027774 -0.72223,1.055565 -1.499993,1.944436 -2.444448,2.777777 -0.944456,0.833341 -1.722212,2.027771 -3.277787,2.583329 -1.555575,0.555559 -2.750797,1.69117 -4.750796,2.024503 0.111111,3.666667 0.18342,9.892122 0.18342,9.892122 0,0 -0.09927,-0.333295 5.734063,-0.222184 z"
       id="front_right_fender"
       transform="matrix(-1,0,0,1,307.15934,0)" />
    <path
       style="fill:none;stroke:#686868;stroke-width:0.997003;stroke-dasharray:none;stroke-opacity:1"
       d="m 62.755922,90.333333 c 0.04882,-0.666666 0.146447,-2 0.250819,-3.222233 0.104372,-1.222233 0.215481,-2.333322 0.264296,-3.356344 0.04882,-1.023022 0.03534,-1.957915 0.02186,-2.892828 2.235702,2.60158 4.471405,5.20316 6.644833,7.726196 2.173427,2.523036 4.284496,4.967432 5.951175,7.023004 1.666679,2.055572 2.888877,3.722205 3.999998,5.500002 1.111122,1.7778 2.111101,3.66665 3.018121,5.43417 0.907019,1.76752 1.721025,3.4136 2.560167,5.17949 0.839143,1.76589 1.703368,3.65147 2.449764,5.5371 0.746396,1.88564 1.374922,3.77122 2.082036,5.89257 0.707115,2.12134 1.492772,4.47831 2.082033,6.83536 0.58926,2.35705 0.982089,4.71402 1.296361,6.91393 0.314273,2.19991 0.54997,4.24262 0.74639,6.48181 0.19642,2.2392 0.353552,4.67474 0.43212,7.14964 0.07857,2.4749 0.07857,4.98901 0.03928,7.7389 -0.03928,2.74989 -0.11785,5.73539 -0.29463,8.50491 -0.176779,2.76953 -0.451759,5.32292 -0.785675,7.89603 -0.333915,2.57311 -0.726744,5.16578 -1.178512,7.56211 -0.451768,2.39633 -0.962448,4.59618 -1.55171,6.91394 -0.589262,2.31776 -1.257071,4.7533 -1.767763,6.77643 -0.510692,2.02313 -0.864238,3.63373 -1.25708,4.94974 -0.392841,1.31602 -0.824952,2.33737 -1.257073,3.35875 -1.532065,-1.6892 -3.064129,-3.3784 -4.596194,-5.0676 0.667823,-2.23917 1.335646,-4.47834 2.042761,-6.7961 0.707115,-2.31777 1.453491,-4.71403 2.082034,-7.07107 0.628544,-2.35705 1.139222,-4.67474 1.610631,-7.34606 0.471409,-2.67133 0.90352,-5.69611 1.296361,-9.17276 0.392841,-3.47665 0.746387,-7.40494 0.962449,-10.50838 0.216061,-3.10343 0.294627,-5.38184 0.314268,-6.61928 0.01964,-1.23744 -0.01964,-1.43385 -0.05893,-1.63027 -7.833731,0.25197 -15.667461,0.50395 -23.501191,0.75592 -0.101578,-2.05903 -0.203155,-4.11805 -0.304733,-6.17708 7.817458,-0.2357 15.634917,-0.4714 23.452375,-0.7071 -0.31427,-2.1606 -0.62854,-4.32121 -1.001739,-6.38362 -0.3732,-2.06242 -0.805311,-4.02656 -1.276721,-5.9122 -0.471411,-1.88564 -0.982088,-3.69265 -1.512423,-5.34258 -0.530336,-1.64993 -1.080297,-3.14268 -1.610633,-4.57655 -0.530335,-1.43387 -1.041012,-2.80877 -1.630276,-4.16407 -0.589263,-1.35531 -1.257073,-2.69093 -2.317748,-4.43907 -1.060674,-1.74815 -2.514142,-3.90871 -4.006937,-5.95148 -1.492795,-2.04277 -3.024832,-3.96764 -4.340846,-5.57828 -1.316014,-1.610647 -2.415936,-2.906984 -3.574818,-4.164075 -1.158882,-1.257091 -2.376652,-2.474861 -3.280183,-3.35875 -0.903532,-0.883889 -1.492775,-1.43385 -2.082031,-1.983822 -0.1537,-0.347244 -0.3074,-0.694489 -0.384249,-0.868111 C 62.707112,91 62.707107,91 62.755922,90.333333 Z"
       id="roof_edg_right"
       transform="matrix(-1,0,0,1,307.15934,0)" />
    <path
       style="fill:none;stroke:#686868;stroke-width:0.997003;stroke-dasharray:none;stroke-opacity:1"
       d="M 23.333333,88.666667 C 30,88.888889 36.666667,89.111111 41.611144,89.277779 c 4.944476,0.166668 8.166634,0.277777 10.777765,0.444446 2.611131,0.166668 4.611091,0.388886 6.143645,0.712114 1.532555,0.323227 2.597621,0.747443 3.662708,1.171668 0.379357,5.797998 0.758714,11.596003 1.226176,17.495053 0.467462,5.89906 1.023006,11.89894 1.457633,17.44472 0.434627,5.54579 0.748305,10.63705 0.932932,14.05211 0.184627,3.41505 0.24018,5.1535 0.295734,6.892 -2.397025,-0.12064 -4.794001,-0.24128 -11.867656,-0.43404 -7.073655,-0.19276 -18.823418,-0.45762 -30.573418,-0.72249 z"
       id="front_right_door"
       transform="matrix(-1,0,0,1,307.15934,0)" />
    <path
       style="fill:none;stroke:#686868;stroke-width:0.997003;stroke-dasharray:none;stroke-opacity:1"
       d="m 23.666667,146.66667 c 12,0.27778 24,0.55555 30.380762,0.70258 6.380763,0.14702 7.142235,0.16328 8.062289,0.19919 0.920055,0.0359 1.998553,0.0915 2.69303,0.13552 0.694477,0.0441 1.004781,0.0766 1.315103,0.10919 0.303581,4.35298 0.607157,8.70587 1.031967,12.87599 0.424811,4.17011 0.970825,8.15713 1.493842,12.42851 0.523017,4.27137 1.023007,8.82683 1.495233,12.99354 0.472227,4.1667 0.916663,7.94441 1.361112,11.1111 0.444449,3.16669 0.888884,5.72219 1.333328,8.27775 -1.277778,0.94444 -2.555557,1.88889 -3.694459,2.13887 -1.138903,0.24999 -2.13888,-0.19446 -9.666796,-5.33345 C 51.944163,197.16647 37.888889,187.33333 23.833333,177.5 Z"
       id="rear_right_door"
       transform="matrix(-1,0,0,1,307.15934,0)" />
    <path
       style="fill:none;stroke:#686868;stroke-width:0.997003;stroke-dasharray:none;stroke-opacity:1"
       d="m 23.688077,177.60166 c 0,4.67476 0,9.34952 0,14.02428 1.06066,0.35355 2.121319,0.70711 3.162347,1.2178 1.041028,0.51069 2.062384,1.1785 3.005202,1.88562 0.942818,0.70711 1.807044,1.45349 2.592725,2.31774 0.78568,0.86425 1.492771,1.84632 2.160602,2.907 0.667831,1.06067 1.296356,2.19987 1.80705,3.31947 0.510694,1.1196 0.903523,2.21952 1.257079,3.41768 0.353556,1.19817 0.66782,2.49451 0.766028,3.88909 0.09821,1.39459 -0.01964,2.88734 -0.235705,4.24264 -0.216064,1.3553 -0.530327,2.57307 -0.903526,3.71231 -0.3732,1.13924 -0.805312,2.19988 -1.355291,3.26055 -0.549978,1.06067 -1.217788,2.12131 -2.00347,3.02484 -0.785682,0.90353 -1.689192,1.64991 -2.749865,2.41595 -1.060672,0.76604 -2.278444,1.5517 -3.476608,2.19988 -1.198164,0.64819 -2.376652,1.15887 -3.496248,1.61064 -1.119595,0.45176 -2.180235,0.84459 -3.221264,1.06065 -1.04103,0.21606 -2.062386,0.25535 -2.396294,1.2571 -0.333908,1.00175 0.01964,2.9659 0.31427,4.51762 0.29463,1.55172 0.530327,2.69092 0.824958,3.9873 0.294631,1.29637 0.648178,2.74984 1.060663,4.41942 0.412484,1.66958 0.883879,3.55516 1.37493,5.49972 0.491051,1.94456 1.001729,3.94799 1.374926,5.55864 0.373198,1.61064 0.608895,2.82841 0.8446,3.53552 0.235705,0.70711 0.471401,0.90352 0.982099,0.96245 0.510699,0.0589 1.296354,-0.0196 3.201644,-0.15714 1.905291,-0.13749 4.930076,-0.33391 7.935309,-0.53033 3.005234,-0.19642 5.990736,-0.39283 8.760263,-0.6089 2.769528,-0.21606 5.322918,-0.45176 7.679962,-0.66782 2.357044,-0.21606 4.517605,-0.41247 6.894295,-0.58925 2.376691,-0.17678 4.969364,-0.33391 6.619287,-0.62855 1.649923,-0.29463 2.357015,-0.72674 2.887349,-1.49278 0.530335,-0.76605 0.883881,-1.86597 1.139226,-3.31948 0.255345,-1.45352 0.412477,-3.26053 0.569613,-5.10689 0.157137,-1.84635 0.314268,-3.73193 0.549973,-5.38186 0.235706,-1.64993 0.54997,-3.06412 0.942812,-4.28192 0.392842,-1.21781 0.864235,-2.23916 1.492782,-3.81053 0.628548,-1.57137 1.414207,-3.69265 2.121319,-5.51936 0.707113,-1.8267 1.335642,-3.35874 2.062399,-5.14617 0.726758,-1.78743 1.551698,-3.83014 2.396307,-6.01041 0.844608,-2.18027 1.708831,-4.49796 2.47487,-6.30502 0.76604,-1.80707 1.433846,-3.1034 2.023108,-4.24264 0.589261,-1.13924 1.099941,-2.12132 1.610629,-3.10341 -1.807049,-2.04275 -3.614103,-4.08551 -5.421152,-6.12826 -1.37493,1.29636 -2.749862,2.59273 -3.869456,3.61411 -1.119594,1.02139 -1.98382,1.76777 -3.103418,2.57309 -1.119597,0.80533 -2.4945,1.66955 -3.476599,2.21952 -0.9821,0.54998 -1.57134,0.78568 -1.96418,0.90353 -0.39284,0.11785 -0.589251,0.11785 -1.139233,-0.0982 -0.549982,-0.21606 -1.453486,-0.64817 -8.858609,-5.75516 C 51.500662,197.16474 37.59451,187.3833 23.688077,177.60166 Z"
       id="rear_right_fender"
       transform="matrix(-1,0,0,1,307.15934,0)" />
    <path
       style="fill:none;stroke:#686868;stroke-width:0.997003;stroke-dasharray:none;stroke-opacity:1"
       d="m 61.891484,190.68313 c -0.176775,0.74639 -0.09821,2.19989 0.157141,2.92663 0.255348,0.72675 0.68746,0.72675 0.864236,-0.0197 0.176776,-0.7464 0.09821,-2.23915 -0.157139,-2.9659 -0.255349,-0.72675 -0.687462,-0.68746 -0.864238,0.0589 z"
       id="path10-7"
       transform="matrix(1.8250463,0,0,2.3162983,-50.780828,-252.32965)" />
    <path
       style="fill:none;stroke:#686868;stroke-width:2.04989;stroke-dasharray:none;stroke-opacity:1"
       d="m 247.17399,134.34936 c -0.32262,1.72886 -0.17923,5.0956 0.28679,6.77896 0.46603,1.68336 1.25465,1.68336 1.57727,-0.0455 0.32263,-1.7289 0.17924,-5.18655 -0.28678,-6.86991 -0.46603,-1.68337 -1.25465,-1.59238 -1.57728,0.13649 z"
       id="path10-79" />
    <path
       style="fill:none;stroke:#686868;stroke-width:2.04989;stroke-dasharray:none;stroke-opacity:1"
       d="m 243.17399,191.34936 c -0.32262,1.72886 -0.17923,5.0956 0.28679,6.77896 0.46603,1.68336 1.25465,1.68336 1.57727,-0.0455 0.32263,-1.7289 0.17924,-5.18655 -0.28678,-6.86991 -0.46603,-1.68337 -1.25465,-1.59238 -1.57728,0.13649 z"
       id="path10-3" />
    <path
       id="path33"
       style="fill:none;stroke:#686868;stroke-width:0.997003;stroke-opacity:1"
       d="m 35.764299,58.90237 a 17,17 0 0 1 -17,17 17,17 0 0 1 -16.9999996,-17 17,17 0 0 1 16.9999996,-17 17,17 0 0 1 17,17 z" />
    <path
       id="path34"
       style="fill:none;stroke:#686868;stroke-width:0.997003;stroke-opacity:1"
       d="M 29.459562,59.442814 A 10.695263,10.833333 0 0 1 18.764299,70.276147 10.695263,10.833333 0 0 1 8.0690365,59.442814 10.695263,10.833333 0 0 1 18.764299,48.609481 10.695263,10.833333 0 0 1 29.459562,59.442814 Z" />
    <path
       id="path35"
       style="fill:none;stroke:#686868;stroke-width:0.997003;stroke-opacity:1"
       d="m 19.589257,64.58242 a 0.82495791,0.94280905 0 0 1 -0.824958,0.942809 0.82495791,0.94280905 0 0 1 -0.824958,-0.942809 0.82495791,0.94280905 0 0 1 0.824958,-0.942809 0.82495791,0.94280905 0 0 1 0.824958,0.942809 z" />
    <path
       id="circle36"
       style="fill:none;stroke:#686868;stroke-width:0.997003;stroke-opacity:1"
       d="m 34.98465,211.10744 a 17,17 0 0 1 -17,17 17,17 0 0 1 -17.00000034,-17 17,17 0 0 1 17.00000034,-17 17,17 0 0 1 17,17 z" />
    <path
       id="ellipse36"
       style="fill:none;stroke:#686868;stroke-width:0.997003;stroke-opacity:1"
       d="M 28.679913,211.64789 A 10.695263,10.833333 0 0 1 17.98465,222.48122 10.695263,10.833333 0 0 1 7.2893867,211.64789 10.695263,10.833333 0 0 1 17.98465,200.81456 10.695263,10.833333 0 0 1 28.679913,211.64789 Z" />
    <path
       id="ellipse37"
       style="fill:none;stroke:#686868;stroke-width:0.997003;stroke-opacity:1"
       d="m 18.809608,216.78749 a 0.82495791,0.94280905 0 0 1 -0.824958,0.94281 0.82495791,0.94280905 0 0 1 -0.824958,-0.94281 0.82495791,0.94280905 0 0 1 0.824958,-0.94281 0.82495791,0.94280905 0 0 1 0.824958,0.94281 z" />
    <path
       id="circle37"
       style="fill:none;stroke:#686868;stroke-width:0.997003;stroke-opacity:1"
       d="m 305.31799,58.774109 a 17,17 0 0 1 -17,17 17,17 0 0 1 -17,-17 17,17 0 0 1 17,-17 17,17 0 0 1 17,17 z" />
    <path
       id="ellipse38"
       style="fill:none;stroke:#686868;stroke-width:0.997003;stroke-opacity:1"
       d="M 299.01326,59.314552 A 10.695263,10.833333 0 0 1 288.31799,70.147885 10.695263,10.833333 0 0 1 277.62273,59.314552 10.695263,10.833333 0 0 1 288.31799,48.481219 10.695263,10.833333 0 0 1 299.01326,59.314552 Z" />
    <path
       id="ellipse39"
       style="fill:none;stroke:#686868;stroke-width:0.997003;stroke-opacity:1"
       d="m 289.14295,64.454155 a 0.82495791,0.94280905 0 0 1 -0.82496,0.942809 0.82495791,0.94280905 0 0 1 -0.82495,-0.942809 0.82495791,0.94280905 0 0 1 0.82495,-0.942809 0.82495791,0.94280905 0 0 1 0.82496,0.942809 z" />
    <path
       id="circle39"
       style="fill:none;stroke:#686868;stroke-width:0.997003;stroke-opacity:1"
       d="m 305.31799,58.774109 a 17,17 0 0 1 -17,17 17,17 0 0 1 -17,-17 17,17 0 0 1 17,-17 17,17 0 0 1 17,17 z" />
    <path
       id="ellipse40"
       style="fill:none;stroke:#686868;stroke-width:0.997003;stroke-opacity:1"
       d="M 299.01326,59.314552 A 10.695263,10.833333 0 0 1 288.31799,70.147885 10.695263,10.833333 0 0 1 277.62273,59.314552 10.695263,10.833333 0 0 1 288.31799,48.481219 10.695263,10.833333 0 0 1 299.01326,59.314552 Z" />
    <path
       id="ellipse41"
       style="fill:none;stroke:#686868;stroke-width:0.997003;stroke-opacity:1"
       d="m 289.14295,64.454155 a 0.82495791,0.94280905 0 0 1 -0.82496,0.942809 0.82495791,0.94280905 0 0 1 -0.82495,-0.942809 0.82495791,0.94280905 0 0 1 0.82495,-0.942809 0.82495791,0.94280905 0 0 1 0.82496,0.942809 z" />
    <path
       id="circle41"
       style="fill:none;stroke:#686868;stroke-width:0.997003;stroke-opacity:1"
       d="m 305.43097,211.90237 a 17,17 0 0 1 -17,17 17,17 0 0 1 -17,-17 17,17 0 0 1 17,-17 17,17 0 0 1 17,17 z" />
    <path
       id="ellipse42"
       style="fill:none;stroke:#686868;stroke-width:0.997003;stroke-opacity:1"
       d="m 299.12623,212.44281 a 10.695263,10.833333 0 0 1 -10.69526,10.83333 10.695263,10.833333 0 0 1 -10.69526,-10.83333 10.695263,10.833333 0 0 1 10.69526,-10.83333 10.695263,10.833333 0 0 1 10.69526,10.83333 z" />
    <path
       id="ellipse43"
       style="fill:none;stroke:#686868;stroke-width:0.997003;stroke-opacity:1"
       d="m 289.25593,217.58243 a 0.82495791,0.94280905 0 0 1 -0.82496,0.94281 0.82495791,0.94280905 0 0 1 -0.82496,-0.94281 0.82495791,0.94280905 0 0 1 0.82496,-0.94281 0.82495791,0.94280905 0 0 1 0.82496,0.94281 z" />
    <path
       style="fill:none;stroke:#686868;stroke-width:0.997003;stroke-dasharray:none;stroke-opacity:1"
       d="m 13,79 c -0.333333,0.888889 -0.666667,2.249183 -0.777777,20.693989 -0.111109,18.444801 0,53.972681 0.111111,89.972681 2,0.44444 3.292895,-0.0539 5.01513,0.22385 1.722236,0.27778 4.735686,0.6246 6.180131,0.73571 L 23,78 Z"
       id="left_step" />
    <path
       style="fill:none;stroke:#686868;stroke-width:0.997003;stroke-dasharray:none;stroke-opacity:1"
       d="m -259.2357,80.414214 c -0.33333,0.888889 -0.43096,0.363546 -0.54207,18.808361 -0.11112,18.444815 -1e-5,54.444095 0.1111,90.444095 2,0.44444 8.66662,0.88888 10.38888,1.16666 1.72227,0.27778 -0.83332,-0.009 0.61117,0.10254 L -249,78.707106 Z"
       id="right_step"
       transform="matrix(-1,0,0,1,34.842867,0)" />
    <path
       style="fill:none;stroke:#686868;stroke-width:0.997003;stroke-dasharray:none;stroke-opacity:1"
       d="m 102.94444,95.833334 c -1.72222,-0.722223 -4.83333,1.722221 -6.722225,3 -1.888895,1.277776 -2.555548,1.388886 -2.888882,1.055546 C 93,99.55554 93,98.777778 93,97.999992 c 0,-0.777785 0,-1.555548 -0.277783,-2.500004 -0.277784,-0.944455 -0.833328,-2.055544 -1.055549,-2.833326 -0.222221,-0.777782 -0.111112,-1.222218 0.944463,-2.666687 1.055576,-1.444468 3.055536,-3.888864 4.388876,-5.333313 1.33334,-1.444449 1.999993,-1.888884 3.000003,-1.944436 1.00002,-0.05555 2.33332,0.277772 3.22222,0.666666 0.88889,0.388894 1.33333,0.83333 1.77777,1.277775 2.33333,-1.111111 -0.0833,-0.305558 6.05557,-3.527785 1.72223,-0.888895 3.33332,-1.638882 4.44443,-2.305549 0.22222,3.888889 0.27778,8.277778 0.44444,10.777789 0.16667,2.500011 0.27778,3.6111 1.23514,8.117919 0.95737,4.506819 2.76091,12.409029 4.56449,20.311399 l -2.36808,1.35519 C 118.90237,119.66667 115,98 115,98 c -0.33333,6.88889 -0.66667,13.77778 -0.72222,19.77783 -0.0556,6.00005 0.16667,11.11106 0.27778,16.77779 0.11111,5.66673 0.11111,11.88882 0.44445,19.94448 0.33334,8.05565 0.99999,17.94434 1.33333,23.55546 0.33333,5.61113 0.33333,6.94444 -0.11112,7.44443 -0.44446,0.5 -1.33333,0.16667 -1.94444,0.94447 -0.61112,0.7778 -0.94445,2.66665 -0.88889,4.38889 0.0556,1.72224 0.5,3.27776 1.11112,4.1111 0.61112,0.83333 1.38888,0.94444 1.72221,-0.77782 0.33333,-1.72226 0.22222,-5.27774 0.38889,-3.22211 0.16668,2.05563 0.61111,9.72215 1.7778,12.99992 1.16668,3.27776 3.05553,2.16667 4.94442,1.05556 L 121,228.66667 108.02022,241.58926 c -0.45118,-2.52975 -0.90237,-5.05951 -1.23907,-7.54663 -0.33671,-2.48712 -0.55893,-4.93152 -0.78115,-7.70933 -0.22223,-2.77781 -0.44445,-5.88886 -0.61111,-8.94444 -0.16667,-3.05559 -0.27778,-6.05553 -0.11111,-7.94442 0.16667,-1.8889 0.61111,-2.66666 1.44445,-3.94446 0.83335,-1.27779 2.05555,-3.05554 2.6111,-4.72222 0.55556,-1.66668 0.44445,-3.2222 0.44445,-15.83355 0,-12.61135 0.11111,-36.27754 0.11111,-48.66644 0,-12.3889 -0.11111,-13.49999 -0.38889,-14.61112 -0.27779,-1.11112 -0.72222,-2.22221 -1.3889,-3.61111 -0.66667,-1.38891 -1.55554,-3.05554 -2.05554,-5.3889 -0.50001,-2.33337 -0.61112,-5.33331 -0.83334,-8.77779 -0.22223,-3.44448 -0.55556,-7.333293 -2.27778,-8.055516 z"
       id="path45" />
    <path
       style="fill:none;stroke:#686868;stroke-width:0.997003;stroke-dasharray:none;stroke-opacity:1"
       d="M 10.944442,95.833333 C 9.2222203,95.111111 6.1111706,97.555508 4.2222457,98.83331 2.3333207,100.11111 1.6666778,100.22222 1.3333389,99.888879 1,99.55554 1,98.777792 1,98 1,97.222207 1,96.444461 0.7222165,95.499997 0.444433,94.555533 -0.11110047,93.444466 -0.33332698,92.666673 -0.5555535,91.88888 -0.4444465,91.444453 0.61113017,89.99998 1.6667069,88.555507 3.6666264,86.111161 4.9999869,84.666687 c 1.3333604,-1.444474 1.9999993,-1.8889 3.0000211,-1.944457 1.0000218,-0.05556 2.333304,0.277764 3.104355,0.568449 0.771052,0.290685 0.979789,0.538706 1.18853,0.786732 2.215482,-1.150395 4.430923,-2.300768 6.251388,-3.209316 1.820465,-0.908548 3.245818,-1.575202 4.671198,-2.241869 0.261507,4.124591 0.523009,8.249102 0.709321,10.867005 0.186312,2.617902 0.297418,3.728969 1.274424,8.353652 0.977007,4.624687 2.819833,12.762597 4.662697,20.900667 -0.986517,0.30637 -1.973034,0.61275 -2.959551,0.91912 -1.30079,-7.22222 -2.601581,-14.44445 -3.418642,-14.61111 -0.817061,-0.16667 -1.150388,6.72209 -1.205944,12.7222 -0.05556,6.00012 0.166658,11.11103 0.277772,16.77781 0.111114,5.66678 0.111114,11.88876 0.444454,19.94447 0.33334,8.05571 0.99998,17.94421 1.33332,23.55543 0.33334,5.61122 0.33334,6.9445 -0.111115,7.44451 -0.444455,0.50001 -1.333306,0.16669 -1.944431,0.94449 -0.611124,0.77779 -0.944444,2.6666 -0.888887,4.38886 0.05556,1.72226 0.499977,3.27774 1.111105,4.1111 0.611128,0.83335 1.388872,0.94446 1.722212,-0.7778 0.33334,-1.72226 0.222232,-5.27767 0.388902,-3.22207 0.16667,2.05559 0.6111,9.72197 1.777787,12.99981 1.166687,3.27783 3.05554,2.16674 4.944427,1.05563 -0.777777,7.88889 -1.555553,15.77778 -2.33333,23.66667 -4.326593,4.30753 -8.653187,8.61506 -12.97978,12.92259 -0.451183,-2.52975 -0.902358,-5.05946 -1.239068,-7.5466 -0.33671,-2.48715 -0.558924,-4.93149 -0.781152,-7.70933 -0.222228,-2.77784 -0.444442,-5.88882 -0.611112,-8.94444 -0.16667,-3.05562 -0.277778,-6.05556 -0.388888,-9.05556 0.444443,-0.77778 0.888879,-1.55554 1.722228,-2.83334 0.833348,-1.2778 2.055525,-3.05551 2.611092,-4.72221 0.555568,-1.6667 0.444462,-3.22219 0.444462,-15.83356 0,-12.61136 0.111106,-36.27713 0.111106,-48.66624 0,-12.38911 -0.111105,-13.50017 -0.38889,-14.61131 -0.277785,-1.11114 -0.722214,-2.22221 -1.388893,-3.61112 -0.666679,-1.38892 -1.555531,-3.05552 -2.055541,-5.3889 -0.50001,-2.33338 -0.611118,-5.33326 -0.833346,-8.77777 -0.222228,-3.44451 -0.555555,-7.333326 -2.277776,-8.055547 z"
       id="path46"
       transform="matrix(-1,0,0,1,214.90492,0)" />
  </g>
  <g
     id="layer_anchors">
    <ellipse
       style="opacity:0;fill:#1c1c1c;fill-opacity:1;stroke:none;stroke-width:0.8;stroke-linecap:round;stroke-linejoin:round;stroke-dasharray:none;stroke-opacity:1"
       id="rear_left_door_anchor"
       cx="48.790367"
       cy="170.41273"
       rx="2.1210001"
       ry="2.1213202" />
    <ellipse
       style="opacity:0;fill:#1c1c1c;fill-opacity:1;stroke:none;stroke-width:0.8;stroke-linecap:round;stroke-linejoin:round;stroke-dasharray:none;stroke-opacity:1"
       id="front_left_door_anchor"
       cx="42.790367"
       cy="116.41273"
       rx="2.1210001"
       ry="2.1213202" />
    <ellipse
       style="opacity:0;fill:#1c1c1c;fill-opacity:1;stroke:none;stroke-width:0.8;stroke-linecap:round;stroke-linejoin:round;stroke-dasharray:none;stroke-opacity:1"
       id="front_left_fender_anchor"
       cx="48.790367"
       cy="52.412727"
       rx="2.1210001"
       ry="2.1213202" />
    <ellipse
       style="opacity:0;fill:#1c1c1c;fill-opacity:1;stroke:none;stroke-width:0.8;stroke-linecap:round;stroke-linejoin:round;stroke-dasharray:none;stroke-opacity:1"
       id="rear_left_fender_anchor"
       cx="50.790367"
       cy="229.41272"
       rx="2.1210001"
       ry="2.1213202" />
    <ellipse
       style="opacity:0;fill:#1c1c1c;fill-opacity:1;stroke:none;stroke-width:0.8;stroke-linecap:round;stroke-linejoin:round;stroke-dasharray:none;stroke-opacity:1"
       id="rear_right_door_anchor"
       cx="258.79037"
       cy="170.41273"
       rx="2.1210001"
       ry="2.1213202" />
    <ellipse
       style="opacity:0;fill:#1c1c1c;fill-opacity:1;stroke:none;stroke-width:0.8;stroke-linecap:round;stroke-linejoin:round;stroke-dasharray:none;stroke-opacity:1"
       id="front_right_door_anchor"
       cx="260.79037"
       cy="116.41273"
       rx="2.1210001"
       ry="2.1213202" />
    <ellipse
       style="opacity:0;fill:#1c1c1c;fill-opacity:1;stroke:none;stroke-width:0.8;stroke-linecap:round;stroke-linejoin:round;stroke-dasharray:none;stroke-opacity:1"
       id="front_right_fender_anchor"
       cx="258.79037"
       cy="52.412727"
       rx="2.1210001"
       ry="2.1213202" />
    <ellipse
       style="opacity:0;fill:#1c1c1c;fill-opacity:1;stroke:none;stroke-width:0.8;stroke-linecap:round;stroke-linejoin:round;stroke-dasharray:none;stroke-opacity:1"
       id="rear_right_fender_anchor"
       cx="256.79037"
       cy="229.41272"
       rx="2.1210001"
       ry="2.1213202" />
    <ellipse
       style="opacity:0;fill:#1c1c1c;fill-opacity:1;stroke:none;stroke-width:0.8;stroke-linecap:round;stroke-linejoin:round;stroke-dasharray:none;stroke-opacity:1"
       id="trunk_anchor"
       cx="154.79037"
       cy="249.41272"
       rx="2.1210001"
       ry="2.1213202" />
    <ellipse
       style="opacity:0;fill:#1c1c1c;fill-opacity:1;stroke:none;stroke-width:0.8;stroke-linecap:round;stroke-linejoin:round;stroke-dasharray:none;stroke-opacity:1"
       id="roof_anchor"
       cx="154.79037"
       cy="161.41272"
       rx="2.1210001"
       ry="2.1213202" />
    <ellipse
       style="opacity:0;fill:#1c1c1c;fill-opacity:1;stroke:none;stroke-width:0.8;stroke-linecap:round;stroke-linejoin:round;stroke-dasharray:none;stroke-opacity:1"
       id="hood_anchor"
       cx="154.79037"
       cy="43.41272"
       rx="2.1210001"
       ry="2.1213202" />
    <ellipse
       style="opacity:0;fill:#1c1c1c;fill-opacity:1;stroke:none;stroke-width:0.8;stroke-linecap:round;stroke-linejoin:round;stroke-dasharray:none;stroke-opacity:1"
       id="right_step_anchor"
       cx="289.121"
       cy="140.12132"
       rx="2.1210001"
       ry="2.1213202" />
    <ellipse
       style="opacity:0;fill:#1c1c1c;fill-opacity:1;stroke:none;stroke-width:0.8;stroke-linecap:round;stroke-linejoin:round;stroke-dasharray:none;stroke-opacity:1"
       id="left_step_anchor"
       cx="17.121002"
       cy="140.12132"
       rx="2.1210001"
       ry="2.1213202" />
    <ellipse
       style="opacity:0;fill:#1c1c1c;fill-opacity:1;stroke:none;stroke-width:0.8;stroke-linecap:round;stroke-linejoin:round;stroke-dasharray:none;stroke-opacity:1"
       id="roof_edge_left_anchor"
       cx="88.454338"
       cy="147.12132"
       rx="2.1210001"
       ry="2.1213202" />
    <ellipse
       style="opacity:0;fill:#1c1c1c;fill-opacity:1;stroke:none;stroke-width:0.8;stroke-linecap:round;stroke-linejoin:round;stroke-dasharray:none;stroke-opacity:1"
       id="roof_edge_right_anchor"
       cx="216.45435"
       cy="147.12132"
       rx="2.1210001"
       ry="2.1213202" />
  </g>
  <g
     id="damage_markers">
    <g
       id="scratch_marker"
       style="opacity:0;fill:none;fill-opacity:1"
       transform="matrix(0.57388307,0,0,0.45749836,35.135394,26.645993)">
      <path
         style="fill:none;fill-opacity:1;stroke:#ede8e5;stroke-width:1;stroke-linecap:round;stroke-linejoin:round;stroke-dasharray:none;stroke-opacity:1"
         d="m 74.481914,31.112698 6.599664,6.128259"
         id="path51" />
      <path
         style="fill:none;fill-opacity:1;stroke:#ede8e5;stroke-width:1;stroke-linecap:round;stroke-linejoin:round;stroke-dasharray:none;stroke-opacity:1"
         d="m 74.481914,35.112698 6.599664,6.128259"
         id="path52" />
      <path
         style="fill:none;fill-opacity:1;stroke:#ede8e5;stroke-width:1;stroke-linecap:round;stroke-linejoin:round;stroke-dasharray:none;stroke-opacity:1"
         d="m 74.481914,39.112698 6.599664,6.128259"
         id="path53" />
      <path
         style="fill:none;fill-opacity:1;stroke:#ede8e5;stroke-width:1;stroke-linecap:round;stroke-linejoin:round;stroke-dasharray:none;stroke-opacity:1"
         d="m 74.481914,43.112698 6.599664,6.128259"
         id="path54" />
      <path
         style="fill:none;fill-opacity:1;stroke:#ede8e5;stroke-width:1;stroke-linecap:round;stroke-linejoin:round;stroke-dasharray:none;stroke-opacity:1"
         d="m 74.481914,47.112698 6.599664,6.128259"
         id="path55" />
    </g>
    <g
       id="dent_marker"
       transform="rotate(-3.9737308,80.492263,59.723567)"
       style="opacity:0">
      <path
         id="path59"
         style="opacity:0.291119;fill:none;stroke:#2b2b2b;stroke-width:0.458;stroke-linecap:round;stroke-linejoin:round;stroke-opacity:1"
         d="m 83.688217,59.723567 a 3.1959545,4.4426852 0 0 1 -3.195954,4.442685 3.1959545,4.4426852 0 0 1 -3.195954,-4.442685 3.1959545,4.4426852 0 0 1 3.195954,-4.442685 3.1959545,4.4426852 0 0 1 3.195954,4.442685 z" />
      <path
         id="ellipse59"
         style="opacity:0.291119;fill:none;stroke:#2b2b2b;stroke-width:0.328922;stroke-linecap:round;stroke-linejoin:round;stroke-opacity:1"
         d="m 82.391554,59.797116 a 1.9523792,2.9554503 0 0 1 -1.95238,2.95545 1.9523792,2.9554503 0 0 1 -1.952379,-2.95545 1.9523792,2.9554503 0 0 1 1.952379,-2.955451 1.9523792,2.9554503 0 0 1 1.95238,2.955451 z" />
      <path
         id="ellipse62"
         style="opacity:0.291119;fill:none;stroke:#2b2b2b;stroke-width:0.176685;stroke-linecap:round;stroke-linejoin:round;stroke-opacity:1"
         d="m 81.558462,59.725209 a 1.0750861,1.5486676 0 0 1 -1.075086,1.548668 1.0750861,1.5486676 0 0 1 -1.075087,-1.548668 1.0750861,1.5486676 0 0 1 1.075087,-1.548667 1.0750861,1.5486676 0 0 1 1.075086,1.548667 z" />
      <path
         id="ellipse64"
         style="opacity:0.291119;fill:none;stroke:#2b2b2b;stroke-width:0.0950233;stroke-linecap:round;stroke-linejoin:round;stroke-opacity:1"
         d="m 81.133516,59.873642 a 0.6611893,0.72833636 1.4352374 0 1 -0.668596,0.723659 0.6611893,0.72833636 1.4352374 0 1 -0.653788,-0.732903 0.6611893,0.72833636 1.4352374 0 1 0.668596,-0.72366 0.6611893,0.72833636 1.4352374 0 1 0.653788,0.732904 z" />
      <path
         id="ellipse65"
         style="opacity:0.291119;fill:none;stroke:#2b2b2b;stroke-width:0.0509586;stroke-linecap:round;stroke-linejoin:round;stroke-opacity:1"
         d="m 80.75686,59.883871 a 0.30665066,0.45163717 0.35015562 0 1 -0.310072,0.448757 0.30665066,0.45163717 0.35015562 0 1 -0.303205,-0.454489 0.30665066,0.45163717 0.35015562 0 1 0.310073,-0.448758 0.30665066,0.45163717 0.35015562 0 1 0.303204,0.45449 z" />
    </g>
  </g>
</svg>
